<?xml version="1.0" standalone="no"?>
<!DOCTYPE svg PUBLIC "-//W3C//DTD SVG 20010904//EN"
 "http://www.w3.org/TR/2001/REC-SVG-20010904/DTD/svg10.dtd">
<svg version="1.0" xmlns="http://www.w3.org/2000/svg"
 width="108.000000pt" height="108.000000pt" viewBox="0 0 108.000000 108.000000"
 preserveAspectRatio="xMidYMid meet">
<metadata>
Created by potrace 1.14, written by Peter Selinger 2001-2017
</metadata>
<g transform="translate(0.000000,108.000000) scale(0.100000,-0.100000)"
fill="#000000" stroke="none">
<path d="M595 1064 c-132 -29 -225 -76 -300 -151 -63 -63 -120 -170 -135 -254
-15 -80 -18 -169 -6 -176 11 -7 226 -6 233 1 3 2 6 36 8 74 4 100 30 166 91
228 40 42 63 56 115 72 74 23 194 23 271 -1 l48 -15 10 37 c45 168 49 152 -47
175 -57 13 -244 19 -288 10z"/>
<path d="M75 452 c-2 -2 -1 -10 2 -18 4 -11 32 -14 129 -14 111 0 124 2 124
18 0 15 -13 17 -126 17 -69 0 -127 -2 -129 -3z"/>
<path d="M273 392 c-29 -2 -43 -8 -43 -18 0 -11 23 -14 130 -14 109 0 130 2
130 15 0 8 -8 15 -17 16 -113 3 -165 4 -200 1z"/>
<path d="M105 330 c-2 -3 0 -11 4 -18 6 -9 44 -12 144 -10 114 3 135 5 128 17
-7 11 -40 14 -141 15 -72 1 -133 -1 -135 -4z"/>
<path d="M272 260 c3 -13 28 -15 168 -16 152 -1 162 0 141 15 -35 23 -313 24
-309 1z"/>
<path d="M167 204 c3 -8 8 -15 12 -15 3 -1 156 -2 339 -3 310 -1 332 0 332 16
0 15 -7 17 -52 11 -57 -7 -114 -7 -430 0 -172 4 -205 2 -201 -9z"/>
<path d="M364 142 c13 -15 48 -17 325 -17 171 0 311 3 311 8 0 4 0 11 0 16 0
5 -136 9 -326 9 -303 0 -324 -1 -310 -16z"/>
<path d="M300 83 c21 -15 57 -17 290 -18 146 -1 270 1 277 3 6 2 9 10 6 18 -4
12 -55 14 -301 14 -282 0 -295 -1 -272 -17z"/>
<path d="M567 30 c36 -15 148 -27 219 -24 68 3 204 23 204 30 0 2 -100 4 -222
3 -141 0 -215 -4 -201 -9z"/>
</g>
</svg>
