<svg width="2417" height="2028" viewBox="0 0 2417 2028" fill="none" xmlns="http://www.w3.org/2000/svg">
<path d="M2103.52 1703.64H327.323C326.855 1703.79 326.363 1703.81 325.885 1703.71C325.406 1703.61 324.956 1703.39 324.567 1703.07C324.179 1702.74 323.864 1702.32 323.647 1701.83C323.43 1701.35 323.317 1700.82 323.317 1700.27C323.317 1699.73 323.43 1699.2 323.647 1698.71C323.864 1698.23 324.179 1697.81 324.567 1697.48C324.956 1697.16 325.406 1696.93 325.885 1696.84C326.363 1696.74 326.855 1696.76 327.323 1696.91H2103.82C2104.47 1697.12 2105.05 1697.56 2105.46 1698.17C2105.87 1698.77 2106.1 1699.51 2106.1 1700.27C2106.1 1701.03 2105.87 1701.77 2105.46 1702.38C2105.05 1702.99 2104.47 1703.43 2103.82 1703.64H2103.52Z" fill="black"/>
<path d="M2000.01 329.609H430.831V1349.94H2000.01V329.609Z" fill="#F3F3F3"/>
<path d="M2000.07 1353.44H430.831C430.418 1353.44 430.009 1353.35 429.628 1353.17C429.247 1353 428.901 1352.74 428.609 1352.41C428.317 1352.09 428.086 1351.7 427.928 1351.28C427.77 1350.85 427.688 1350.4 427.688 1349.94V329.609C427.688 328.681 428.02 327.791 428.609 327.135C429.198 326.479 429.997 326.111 430.831 326.111H2000.07C2000.48 326.111 2000.88 326.202 2001.26 326.378C2001.64 326.555 2001.98 326.814 2002.27 327.139C2002.56 327.465 2002.78 327.851 2002.93 328.275C2003.08 328.699 2003.16 329.153 2003.15 329.609V1349.94C2003.15 1350.86 2002.83 1351.74 2002.25 1352.39C2001.67 1353.04 2000.89 1353.42 2000.07 1353.44ZM433.973 1346.71H1996.87V333.107H433.912L433.973 1346.71Z" fill="black"/>
<path d="M2000.01 281.176H430.831V329.609H2000.01V281.176Z" fill="#F3F3F3"/>
<path d="M2000.07 333.107H430.831C429.997 333.107 429.198 332.738 428.609 332.082C428.02 331.426 427.688 330.537 427.688 329.609V281.176C427.688 280.248 428.02 279.358 428.609 278.702C429.198 278.046 429.997 277.678 430.831 277.678H2000.07C2000.48 277.678 2000.88 277.768 2001.26 277.945C2001.64 278.122 2001.98 278.38 2002.27 278.706C2002.56 279.032 2002.78 279.418 2002.93 279.842C2003.08 280.266 2003.16 280.719 2003.15 281.176V329.609C2003.15 330.525 2002.83 331.405 2002.25 332.059C2001.67 332.713 2000.89 333.089 2000.07 333.107ZM433.973 326.38H1996.87V284.606H433.912L433.973 326.38Z" fill="black"/>
<path d="M1266.63 970.679H1181.31V1275.54H1266.63V970.679Z" fill="#F3F3F3"/>
<path d="M1266.63 1278.97H1181.31C1180.9 1278.98 1180.49 1278.9 1180.11 1278.73C1179.73 1278.56 1179.38 1278.31 1179.09 1277.99C1178.8 1277.67 1178.57 1277.29 1178.41 1276.87C1178.25 1276.45 1178.17 1276 1178.17 1275.54V970.679C1178.17 969.751 1178.5 968.861 1179.09 968.205C1179.68 967.55 1180.48 967.181 1181.31 967.181H1266.63C1267.46 967.181 1268.26 967.55 1268.85 968.205C1269.44 968.861 1269.77 969.751 1269.77 970.679V1275.54C1269.77 1276 1269.69 1276.45 1269.53 1276.87C1269.37 1277.29 1269.14 1277.67 1268.85 1277.99C1268.55 1278.31 1268.21 1278.56 1267.83 1278.73C1267.45 1278.9 1267.04 1278.98 1266.63 1278.97ZM1184.45 1272.24H1263.55V974.11H1184.33L1184.45 1272.24Z" fill="black"/>
<path d="M855.739 1349.94C855.739 1349.94 874.41 1234.24 944.624 1202.49C1014.84 1170.74 1052.97 1236.12 1052.97 1236.12C1052.97 1236.12 1071.09 1128.49 1182.64 1128.49C1294.18 1128.49 1319.92 1213.12 1319.92 1213.12C1319.92 1213.12 1342.82 1161.99 1393.16 1165.49C1443.49 1168.99 1451.17 1239.48 1451.17 1239.48C1465.82 1232.25 1481.67 1228.52 1497.69 1228.52C1513.72 1228.52 1529.57 1232.25 1544.22 1239.48C1592.56 1264.51 1612.92 1350.28 1612.92 1350.28L855.739 1349.94Z" fill="#F3F3F3"/>
<path d="M1612.92 1353.44H855.739C855.277 1353.43 854.822 1353.31 854.405 1353.09C853.987 1352.87 853.618 1352.55 853.322 1352.16C852.774 1351.35 852.535 1350.34 852.657 1349.33C853.443 1344.49 872.477 1231.34 943.295 1199.26C961.646 1190.04 982.233 1187.88 1001.81 1193.13C1021.38 1198.38 1038.83 1210.74 1051.39 1228.25C1057.98 1203.9 1086.74 1124.93 1182.52 1124.93C1276.6 1124.93 1311.34 1185.47 1320.23 1205.65C1328.38 1191.86 1352.13 1159.17 1393.28 1162.13C1437.87 1165.22 1450.62 1218.23 1453.7 1234.3C1468.35 1227.67 1484.05 1224.41 1499.86 1224.73C1515.67 1225.06 1531.26 1228.95 1545.67 1236.19C1594.8 1261.55 1615.16 1345.63 1616.01 1349.2C1616.13 1349.71 1616.14 1350.24 1616.05 1350.75C1615.95 1351.27 1615.75 1351.75 1615.46 1352.16C1615.17 1352.59 1614.78 1352.93 1614.34 1353.15C1613.89 1353.37 1613.41 1353.47 1612.92 1353.44ZM859.546 1346.71H1608.82C1603.92 1329.15 1583.32 1263.43 1543.01 1242.58C1528.73 1235.6 1513.29 1232 1497.69 1232C1482.09 1232 1466.66 1235.6 1452.38 1242.58C1451.94 1242.84 1451.45 1242.98 1450.96 1242.98C1450.46 1242.98 1449.97 1242.84 1449.54 1242.58C1449.1 1242.32 1448.72 1241.94 1448.44 1241.49C1448.15 1241.03 1447.97 1240.51 1447.9 1239.96C1447.9 1239.28 1439.93 1172.69 1392.8 1169.26C1345.66 1165.83 1322.76 1214.46 1322.58 1214.93C1322.29 1215.53 1321.86 1216.03 1321.32 1216.37C1320.78 1216.7 1320.17 1216.86 1319.56 1216.81C1318.95 1216.78 1318.37 1216.55 1317.88 1216.14C1317.4 1215.73 1317.04 1215.17 1316.84 1214.53C1316.54 1213.65 1290.13 1132.19 1182.46 1132.19C1137.38 1132.19 1102.39 1149.75 1078.47 1184.39C1067.71 1199.96 1060 1217.85 1055.81 1236.93C1055.7 1237.6 1055.41 1238.23 1054.98 1238.72C1054.55 1239.21 1053.99 1239.55 1053.39 1239.69C1052.77 1239.83 1052.14 1239.77 1051.55 1239.5C1050.97 1239.24 1050.47 1238.79 1050.13 1238.21C1038.85 1220.05 1022.21 1206.88 1003.11 1200.99C984.002 1195.1 963.645 1196.87 945.591 1205.98C885.407 1233.03 863.715 1325.79 859.546 1346.44V1346.71Z" fill="black"/>
<path d="M1269.17 1019.05H1176.54L1165.42 969.535H1280.28L1269.17 1019.05Z" fill="#F3F3F3"/>
<path d="M1268.92 1022.54H1176.54C1175.84 1022.55 1175.16 1022.29 1174.61 1021.82C1174.07 1021.34 1173.68 1020.67 1173.51 1019.92L1162.4 970.41C1162.27 969.893 1162.26 969.351 1162.35 968.826C1162.45 968.301 1162.65 967.808 1162.94 967.383C1163.24 966.98 1163.62 966.656 1164.05 966.435C1164.48 966.214 1164.95 966.101 1165.42 966.105H1280.22C1280.7 966.101 1281.16 966.214 1281.59 966.435C1282.02 966.656 1282.4 966.98 1282.7 967.383C1282.98 967.814 1283.18 968.308 1283.27 968.83C1283.36 969.353 1283.36 969.892 1283.25 970.41L1272.13 1019.92C1271.96 1020.71 1271.54 1021.4 1270.96 1021.88C1270.37 1022.36 1269.65 1022.6 1268.92 1022.54ZM1178.71 1015.82H1266.51L1276.06 973.235H1169.41L1178.71 1015.82Z" fill="black"/>
<path d="M1119.01 814.885C1119.01 814.885 1070.67 848.519 1053.57 904.958C1036.47 961.396 1075.2 1070.1 1075.2 1070.1L1163.48 963.549L1119.01 814.885Z" fill="#F3F3F3"/>
<path d="M1075.2 1073.6H1074.6C1074.08 1073.5 1073.6 1073.24 1073.19 1072.86C1072.79 1072.49 1072.48 1072 1072.3 1071.45C1070.67 1066.94 1033.63 960.791 1050.67 903.949C1067.71 847.107 1115.32 813.405 1117.14 811.992C1117.55 811.762 1118.01 811.641 1118.47 811.641C1118.93 811.641 1119.38 811.762 1119.8 811.992C1120.25 812.161 1120.65 812.443 1120.99 812.817C1121.32 813.19 1121.58 813.645 1121.73 814.145L1166.2 962.405C1166.38 963.001 1166.42 963.64 1166.3 964.256C1166.18 964.871 1165.92 965.44 1165.54 965.903L1077.2 1072.46C1076.95 1072.78 1076.65 1073.06 1076.3 1073.25C1075.96 1073.45 1075.59 1073.57 1075.2 1073.6ZM1117.5 820.334C1106.38 829.079 1070.43 860.089 1056.65 906.101C1042.45 953.66 1069.16 1041.38 1076.41 1063.64L1160.1 962.741L1117.5 820.334Z" fill="black"/>
<path d="M1328.93 814.885C1328.93 814.885 1377.27 848.519 1394.37 904.958C1411.47 961.396 1372.73 1070.1 1372.73 1070.1L1284.45 963.549L1328.93 814.885Z" fill="#F3F3F3"/>
<path d="M1372.8 1073.6C1372.36 1073.61 1371.93 1073.51 1371.53 1073.31C1371.14 1073.12 1370.78 1072.82 1370.5 1072.46L1282.16 965.903C1281.78 965.44 1281.51 964.871 1281.39 964.256C1281.28 963.64 1281.31 963.001 1281.49 962.405L1325.97 813.809C1326.12 813.308 1326.37 812.854 1326.71 812.48C1327.04 812.107 1327.45 811.825 1327.9 811.656C1328.31 811.425 1328.77 811.305 1329.23 811.305C1329.69 811.305 1330.15 811.425 1330.56 811.656C1332.61 813.069 1380.29 846.77 1397.33 903.612C1414.37 960.454 1377.27 1066.6 1375.7 1071.11C1375.49 1071.66 1375.17 1072.14 1374.76 1072.52C1374.35 1072.9 1373.86 1073.15 1373.34 1073.26L1372.8 1073.6ZM1288.2 962.674L1371.89 1063.58C1379.14 1041.31 1405.85 953.525 1391.65 906.034C1377.87 860.022 1341.92 829.011 1330.86 820.266L1288.2 962.674Z" fill="black"/>
<path d="M1302.22 988.303C1326.39 923.995 1341.5 830.76 1341.5 727.099C1341.43 570.027 1263.67 488.027 1234.06 462.397C1230.86 459.599 1226.92 458.077 1222.85 458.077C1218.79 458.077 1214.84 459.599 1211.64 462.397C1182.03 487.758 1104.15 569.623 1104.15 726.83C1104.15 830.491 1119.37 923.725 1143.48 988.034C1143.48 988.034 1167.65 1001.49 1222.82 1001.49C1277.99 1001.49 1302.22 988.303 1302.22 988.303Z" fill="#F3F3F3"/>
<path d="M1222.82 1005.26C1167.47 1005.26 1143.12 991.801 1142.09 991.398C1141.43 991.031 1140.92 990.409 1140.64 989.649C1115.45 922.38 1101.06 826.926 1101.06 727.301C1101.06 570.431 1177.08 488.161 1209.83 460.11C1213.59 456.876 1218.22 455.121 1222.97 455.121C1227.73 455.121 1232.35 456.876 1236.11 460.11C1268.74 488.161 1344.88 570.363 1344.88 727.301C1344.88 827.195 1330.44 922.851 1305.3 989.649C1305 990.394 1304.49 991.009 1303.85 991.398C1302.58 991.936 1278.23 1005.26 1222.82 1005.26ZM1145.9 985.68C1150.98 988.102 1175.27 998.326 1222.82 998.326C1270.38 998.326 1294.73 988.102 1299.8 985.68C1324.33 919.622 1338.41 825.446 1338.41 727.099C1338.41 573.256 1264.09 492.803 1232.19 465.357C1229.5 463.103 1226.22 461.884 1222.85 461.884C1219.48 461.884 1216.21 463.103 1213.52 465.357C1181.61 492.87 1107.29 572.987 1107.29 727.099C1107.29 825.648 1121.37 919.824 1145.9 985.68Z" fill="black"/>
<path d="M1211.64 462.397C1175.35 494.59 1146.96 536.472 1129.1 584.153H1316.42C1298.61 536.495 1270.28 494.614 1234.06 462.397C1230.86 459.599 1226.92 458.077 1222.85 458.077C1218.79 458.077 1214.84 459.599 1211.64 462.397Z" fill="#F3F3F3"/>
<path d="M1316.6 587.921H1129.28C1128.77 587.925 1128.26 587.785 1127.81 587.515C1127.35 587.245 1126.97 586.852 1126.68 586.373C1126.4 585.892 1126.22 585.341 1126.17 584.767C1126.12 584.193 1126.19 583.613 1126.38 583.077C1144.36 534.838 1173.03 492.461 1209.71 459.908C1213.47 456.674 1218.1 454.919 1222.85 454.919C1227.61 454.919 1232.23 456.674 1235.99 459.908C1272.74 492.436 1301.48 534.816 1319.5 583.077C1319.69 583.613 1319.77 584.193 1319.71 584.767C1319.66 585.341 1319.49 585.892 1319.2 586.373C1318.91 586.848 1318.53 587.237 1318.07 587.507C1317.62 587.777 1317.11 587.919 1316.6 587.921ZM1133.81 581.194H1311.83C1294.2 535.964 1266.85 496.254 1232.19 465.559C1229.5 463.305 1226.22 462.086 1222.85 462.086C1219.48 462.086 1216.21 463.305 1213.52 465.559C1178.88 496.209 1151.51 535.842 1133.81 580.992V581.194Z" fill="black"/>
<path d="M1227.47 781.856C1267.45 781.856 1299.86 745.776 1299.86 701.268C1299.86 656.761 1267.45 620.68 1227.47 620.68C1187.49 620.68 1155.08 656.761 1155.08 701.268C1155.08 745.776 1187.49 781.856 1227.47 781.856Z" fill="#F3F3F3"/>
<path d="M1227.47 785.287C1212.53 785.287 1197.93 780.355 1185.51 771.116C1173.09 761.876 1163.41 748.744 1157.69 733.379C1151.98 718.014 1150.48 701.108 1153.39 684.797C1156.31 668.485 1163.5 653.503 1174.06 641.743C1184.63 629.984 1198.09 621.975 1212.74 618.731C1227.39 615.486 1242.58 617.151 1256.38 623.516C1270.18 629.88 1281.98 640.657 1290.28 654.485C1298.58 668.313 1303 684.57 1303 701.201C1302.99 723.496 1295.03 744.873 1280.86 760.639C1266.7 776.404 1247.5 785.269 1227.47 785.287ZM1227.47 623.842C1213.76 623.842 1200.36 628.369 1188.96 636.85C1177.56 645.331 1168.68 657.385 1163.44 671.488C1158.19 685.59 1156.82 701.108 1159.5 716.076C1162.18 731.045 1168.79 744.793 1178.49 755.581C1188.19 766.369 1200.54 773.712 1213.99 776.682C1227.44 779.651 1241.38 778.114 1254.04 772.264C1266.7 766.413 1277.52 756.514 1285.13 743.816C1292.74 731.119 1296.79 716.195 1296.78 700.932C1296.69 680.538 1289.34 661.017 1276.35 646.634C1263.37 632.252 1245.79 624.178 1227.47 624.178V623.842Z" fill="black"/>
<path d="M1227.47 750.98C1252.14 750.98 1272.13 728.723 1272.13 701.268C1272.13 673.813 1252.14 651.557 1227.47 651.557C1202.81 651.557 1182.82 673.813 1182.82 701.268C1182.82 728.723 1202.81 750.98 1227.47 750.98Z" fill="#F3F3F3"/>
<path d="M1227.47 754.478C1218.02 754.478 1208.78 751.357 1200.92 745.51C1193.06 739.663 1186.93 731.353 1183.32 721.631C1179.7 711.908 1178.75 701.209 1180.6 690.887C1182.44 680.566 1186.99 671.085 1193.68 663.643C1200.36 656.202 1208.88 651.134 1218.15 649.081C1227.42 647.028 1237.03 648.082 1245.76 652.109C1254.5 656.136 1261.96 662.956 1267.21 671.707C1272.47 680.457 1275.27 690.744 1275.27 701.268C1275.27 715.38 1270.23 728.914 1261.27 738.893C1252.31 748.872 1240.15 754.478 1227.47 754.478ZM1227.47 655.055C1219.25 655.055 1211.21 657.771 1204.37 662.859C1197.53 667.947 1192.2 675.179 1189.06 683.64C1185.92 692.101 1185.1 701.41 1186.7 710.389C1188.31 719.369 1192.28 727.615 1198.1 734.085C1203.92 740.554 1211.33 744.957 1219.4 746.735C1227.47 748.513 1235.83 747.587 1243.42 744.074C1251.02 740.561 1257.51 734.618 1262.07 726.999C1266.63 719.379 1269.06 710.424 1269.05 701.268C1269.03 689.005 1264.64 677.251 1256.85 668.586C1249.05 659.921 1238.49 655.055 1227.47 655.055Z" fill="black"/>
<path d="M1262.88 700.057C1262.15 700.051 1261.45 699.757 1260.9 699.228C1260.34 698.698 1259.98 697.967 1259.86 697.165C1259.38 688.158 1255.73 679.726 1249.7 673.695C1243.67 667.665 1235.75 664.52 1227.65 664.943C1227.26 664.974 1226.86 664.918 1226.48 664.777C1226.11 664.637 1225.76 664.415 1225.46 664.124C1224.85 663.538 1224.48 662.707 1224.42 661.815C1224.37 660.923 1224.63 660.043 1225.16 659.368C1225.68 658.693 1226.43 658.279 1227.23 658.216C1236.83 657.798 1246.19 661.516 1253.39 668.596C1260.58 675.676 1265.04 685.572 1265.84 696.223C1265.95 697.096 1265.74 697.979 1265.27 698.683C1264.79 699.388 1264.09 699.857 1263.31 699.99L1262.88 700.057Z" fill="black"/>
<path d="M1211.76 669.719C1211.3 669.727 1210.84 669.616 1210.42 669.394C1210 669.173 1209.63 668.846 1209.35 668.441C1208.87 667.729 1208.67 666.842 1208.77 665.965C1208.87 665.088 1209.27 664.288 1209.89 663.732C1212.49 661.593 1215.52 660.185 1218.71 659.629C1219.11 659.573 1219.51 659.605 1219.9 659.723C1220.28 659.842 1220.64 660.045 1220.96 660.321C1221.27 660.596 1221.54 660.938 1221.73 661.328C1221.93 661.717 1222.05 662.146 1222.1 662.589C1222.18 663.468 1221.96 664.352 1221.48 665.054C1220.99 665.756 1220.28 666.222 1219.5 666.356C1217.32 666.708 1215.25 667.63 1213.45 669.046C1212.97 669.469 1212.38 669.705 1211.76 669.719Z" fill="black"/>
<path d="M1293.46 967.854C1293.14 967.924 1292.81 967.924 1292.49 967.854C1291.73 967.577 1291.1 966.975 1290.74 966.18C1290.37 965.385 1290.31 964.463 1290.56 963.616C1303.05 919.487 1313.14 874.56 1320.77 829.079C1320.83 828.642 1320.98 828.225 1321.19 827.852C1321.4 827.479 1321.68 827.157 1322.01 826.906C1322.34 826.655 1322.71 826.479 1323.09 826.39C1323.48 826.301 1323.88 826.301 1324.27 826.388C1325.06 826.551 1325.75 827.053 1326.2 827.784C1326.66 828.515 1326.83 829.416 1326.69 830.289C1319.08 876.129 1308.99 921.416 1296.48 965.903C1296.22 966.536 1295.79 967.064 1295.25 967.414C1294.71 967.763 1294.08 967.917 1293.46 967.854Z" fill="#F3F3F3"/>
<path d="M1234.3 1093.04C1233.5 1093.04 1232.73 1092.69 1232.17 1092.06C1231.6 1091.42 1231.28 1090.57 1231.28 1089.68V1025.84C1231.28 1024.95 1231.6 1024.09 1232.17 1023.46C1232.73 1022.83 1233.5 1022.48 1234.3 1022.48C1235.1 1022.48 1235.87 1022.83 1236.44 1023.46C1237 1024.09 1237.32 1024.95 1237.32 1025.84V1089.68C1237.32 1090.57 1237 1091.42 1236.44 1092.06C1235.87 1092.69 1235.1 1093.04 1234.3 1093.04Z" fill="black"/>
<path d="M1203.36 1126.47C1202.57 1126.46 1201.81 1126.1 1201.24 1125.47C1200.68 1124.84 1200.36 1124 1200.34 1123.11V1056.31C1200.36 1055.43 1200.68 1054.58 1201.24 1053.95C1201.81 1053.33 1202.57 1052.97 1203.36 1052.95C1204.17 1052.95 1204.93 1053.3 1205.5 1053.93C1206.07 1054.56 1206.39 1055.42 1206.39 1056.31V1123.11C1206.39 1124 1206.07 1124.86 1205.5 1125.49C1204.93 1126.12 1204.17 1126.47 1203.36 1126.47Z" fill="black"/>
<path d="M1018.83 1291.01H1018.28C1017.89 1290.93 1017.51 1290.76 1017.18 1290.52C1016.84 1290.28 1016.55 1289.96 1016.33 1289.59C1016.1 1289.22 1015.95 1288.81 1015.87 1288.37C1015.79 1287.93 1015.79 1287.48 1015.86 1287.04C1015.86 1285.7 1021.91 1252.67 1048.19 1237.4C1067.23 1226.3 1091.58 1227.78 1120.7 1241.84C1121.11 1241.98 1121.48 1242.22 1121.8 1242.53C1122.12 1242.84 1122.37 1243.23 1122.55 1243.66C1122.72 1244.09 1122.81 1244.55 1122.82 1245.03C1122.82 1245.5 1122.73 1245.97 1122.56 1246.4C1122.39 1246.83 1122.14 1247.22 1121.83 1247.54C1121.51 1247.86 1121.14 1248.1 1120.74 1248.24C1120.33 1248.39 1119.91 1248.44 1119.48 1248.39C1119.06 1248.34 1118.65 1248.2 1118.29 1247.96C1091.03 1234.51 1068.43 1233.23 1051.09 1243.32C1027.65 1256.77 1021.91 1288.05 1021.85 1288.39C1021.7 1289.15 1021.32 1289.84 1020.77 1290.32C1020.22 1290.8 1019.53 1291.04 1018.83 1291.01Z" fill="black"/>
<path d="M1362.04 1250.99C1361.62 1250.98 1361.2 1250.88 1360.81 1250.68C1360.43 1250.48 1360.08 1250.2 1359.8 1249.84C1316.84 1196.97 1284.33 1218.5 1284.03 1218.7C1283.7 1218.94 1283.32 1219.11 1282.93 1219.19C1282.53 1219.26 1282.13 1219.25 1281.74 1219.15C1281.35 1219.05 1280.98 1218.86 1280.66 1218.6C1280.34 1218.34 1280.07 1218.01 1279.86 1217.62C1279.46 1216.85 1279.34 1215.94 1279.53 1215.07C1279.72 1214.2 1280.21 1213.45 1280.89 1212.98C1282.34 1211.97 1317.99 1188.36 1364.28 1245.34C1364.56 1245.65 1364.78 1246.02 1364.94 1246.43C1365.09 1246.84 1365.17 1247.28 1365.17 1247.72C1365.17 1248.17 1365.09 1248.61 1364.94 1249.02C1364.78 1249.43 1364.56 1249.8 1364.28 1250.11C1363.65 1250.7 1362.86 1251.01 1362.04 1250.99Z" fill="black"/>
<path d="M1569.84 574.669H1398.6C1397.8 574.669 1397.03 574.314 1396.46 573.683C1395.89 573.053 1395.58 572.197 1395.58 571.305C1395.58 570.413 1395.89 569.558 1396.46 568.927C1397.03 568.296 1397.8 567.942 1398.6 567.942H1569.84C1570.64 567.942 1571.41 568.296 1571.98 568.927C1572.54 569.558 1572.86 570.413 1572.86 571.305C1572.86 572.197 1572.54 573.053 1571.98 573.683C1571.41 574.314 1570.64 574.669 1569.84 574.669Z" fill="black"/>
<path d="M1569.84 617.922H1398.6C1397.8 617.922 1397.03 617.568 1396.46 616.937C1395.89 616.306 1395.58 615.451 1395.58 614.559C1395.59 613.672 1395.91 612.827 1396.48 612.2C1397.04 611.573 1397.8 611.213 1398.6 611.195H1569.84C1570.64 611.195 1571.41 611.55 1571.98 612.181C1572.54 612.811 1572.86 613.667 1572.86 614.559C1572.86 615.451 1572.54 616.306 1571.98 616.937C1571.41 617.568 1570.64 617.922 1569.84 617.922Z" fill="black"/>
<path d="M1569.84 661.243H1398.6C1397.8 661.226 1397.04 660.866 1396.48 660.239C1395.91 659.612 1395.59 658.767 1395.58 657.88C1395.58 656.988 1395.89 656.132 1396.46 655.502C1397.03 654.871 1397.8 654.516 1398.6 654.516H1569.84C1570.64 654.516 1571.41 654.871 1571.98 655.502C1572.54 656.132 1572.86 656.988 1572.86 657.88C1572.86 658.772 1572.54 659.627 1571.98 660.258C1571.41 660.889 1570.64 661.243 1569.84 661.243Z" fill="black"/>
<path d="M1509.11 704.564H1398.6C1397.8 704.564 1397.03 704.21 1396.46 703.579C1395.89 702.948 1395.58 702.093 1395.58 701.201C1395.58 700.309 1395.89 699.453 1396.46 698.823C1397.03 698.192 1397.8 697.837 1398.6 697.837H1509.11C1509.92 697.837 1510.68 698.192 1511.25 698.823C1511.82 699.453 1512.14 700.309 1512.14 701.201C1512.14 702.093 1511.82 702.948 1511.25 703.579C1510.68 704.21 1509.92 704.564 1509.11 704.564Z" fill="black"/>
<path d="M1251.95 1117.86C1251.15 1117.85 1250.39 1117.49 1249.83 1116.86C1249.26 1116.23 1248.94 1115.39 1248.92 1114.5V1086.72C1248.92 1085.83 1249.24 1084.97 1249.81 1084.34C1250.38 1083.71 1251.14 1083.35 1251.95 1083.35C1252.75 1083.35 1253.52 1083.71 1254.08 1084.34C1254.65 1084.97 1254.97 1085.83 1254.97 1086.72V1114.5C1254.97 1115.39 1254.65 1116.25 1254.08 1116.88C1253.52 1117.51 1252.75 1117.86 1251.95 1117.86Z" fill="black"/>
<path d="M1060.22 639.583H816.16C815.359 639.583 814.591 639.228 814.024 638.598C813.457 637.967 813.139 637.111 813.139 636.219V476.86C813.155 475.973 813.478 475.128 814.041 474.501C814.604 473.874 815.364 473.514 816.16 473.497C816.962 473.497 817.73 473.851 818.297 474.482C818.863 475.112 819.182 475.968 819.182 476.86V632.856H1060.22C1061.02 632.856 1061.79 633.21 1062.35 633.841C1062.92 634.472 1063.24 635.327 1063.24 636.219C1063.24 637.111 1062.92 637.967 1062.35 638.598C1061.79 639.228 1061.02 639.583 1060.22 639.583Z" fill="black"/>
<path d="M842.687 615.03C842.409 615.099 842.12 615.099 841.841 615.03C841.072 614.78 840.423 614.2 840.038 613.418C839.653 612.636 839.563 611.715 839.787 610.859C840.452 608.505 855.981 553.075 892.659 542.312C913.143 536.258 918.642 547.627 923.959 558.524C929.276 569.422 933.566 578.301 950.183 579.108H951.271C985.713 579.108 1012.78 494.148 1013.03 493.273C1013.29 492.426 1013.85 491.73 1014.57 491.339C1014.93 491.146 1015.32 491.033 1015.72 491.007C1016.12 490.981 1016.52 491.042 1016.89 491.188C1017.27 491.334 1017.62 491.561 1017.92 491.856C1018.21 492.151 1018.46 492.509 1018.63 492.909C1018.8 493.309 1018.91 493.743 1018.93 494.186C1018.95 494.63 1018.9 495.074 1018.77 495.493C1017.56 499.26 989.943 585.835 951.211 585.835H949.942C929.881 584.826 923.657 572.381 918.642 561.753C913.626 551.124 910.061 544.129 894.472 548.77C860.996 558.591 846.131 612.272 845.829 612.81C845.603 613.517 845.171 614.12 844.602 614.522C844.032 614.925 843.358 615.103 842.687 615.03Z" fill="black"/>
<path d="M1468.75 1133.13C1458.28 1133.13 1448.05 1129.68 1439.34 1123.2C1430.64 1116.73 1423.85 1107.52 1419.85 1096.76C1415.84 1085.99 1414.79 1074.14 1416.84 1062.71C1418.88 1051.28 1423.92 1040.78 1431.32 1032.54C1438.72 1024.3 1448.16 1018.68 1458.42 1016.41C1468.69 1014.14 1479.33 1015.3 1489.01 1019.76C1498.68 1024.22 1506.95 1031.78 1512.76 1041.47C1518.58 1051.16 1521.68 1062.55 1521.68 1074.21C1521.67 1089.83 1516.09 1104.81 1506.16 1115.85C1496.24 1126.9 1482.78 1133.12 1468.75 1133.13ZM1468.75 1022.01C1459.48 1022.01 1450.41 1025.07 1442.7 1030.8C1434.99 1036.54 1428.98 1044.69 1425.43 1054.23C1421.88 1063.77 1420.95 1074.26 1422.76 1084.39C1424.57 1094.52 1429.04 1103.82 1435.59 1111.12C1442.15 1118.42 1450.51 1123.39 1459.6 1125.4C1468.7 1127.42 1478.13 1126.38 1486.69 1122.43C1495.26 1118.48 1502.59 1111.79 1507.74 1103.21C1512.89 1094.62 1515.64 1084.53 1515.64 1074.21C1515.62 1060.37 1510.68 1047.1 1501.89 1037.31C1493.1 1027.53 1481.18 1022.02 1468.75 1022.01Z" fill="black"/>
<path d="M1509.9 1108.98C1509.29 1108.98 1508.7 1108.77 1508.21 1108.38L1467.06 1076.96C1466.65 1076.67 1466.31 1076.26 1466.07 1075.78C1465.84 1075.29 1465.72 1074.75 1465.73 1074.21V1018.64C1465.74 1017.75 1466.07 1016.91 1466.63 1016.28C1467.19 1015.66 1467.95 1015.3 1468.75 1015.28C1469.55 1015.28 1470.32 1015.63 1470.89 1016.26C1471.45 1016.89 1471.77 1017.75 1471.77 1018.64V1072.46L1511.65 1102.86C1512.18 1103.27 1512.58 1103.86 1512.78 1104.54C1512.99 1105.22 1513 1105.96 1512.8 1106.64C1512.61 1107.33 1512.22 1107.92 1511.7 1108.34C1511.17 1108.76 1510.55 1108.99 1509.9 1108.98Z" fill="black"/>
<path d="M1421.98 1089.41C1421.29 1089.41 1420.62 1089.15 1420.09 1088.68C1419.55 1088.2 1419.17 1087.53 1419.02 1086.78C1418.93 1086.36 1418.92 1085.91 1418.99 1085.48C1419.06 1085.04 1419.2 1084.63 1419.42 1084.26C1419.63 1083.89 1419.91 1083.57 1420.24 1083.32C1420.56 1083.08 1420.93 1082.9 1421.32 1082.82L1468.09 1070.91C1468.48 1070.81 1468.89 1070.8 1469.29 1070.88C1469.69 1070.96 1470.07 1071.13 1470.42 1071.37C1470.76 1071.61 1471.05 1071.93 1471.29 1072.3C1471.52 1072.67 1471.68 1073.09 1471.77 1073.53C1471.86 1073.97 1471.87 1074.43 1471.8 1074.88C1471.72 1075.32 1471.58 1075.75 1471.36 1076.13C1471.14 1076.51 1470.85 1076.84 1470.52 1077.1C1470.19 1077.36 1469.81 1077.54 1469.42 1077.64L1422.65 1089.48L1421.98 1089.41Z" fill="black"/>
<path d="M995.2 1083.49H923.778C922.976 1083.49 922.208 1083.13 921.641 1082.5C921.075 1081.87 920.756 1081.02 920.756 1080.13C920.756 1079.23 921.075 1078.38 921.641 1077.75C922.208 1077.12 922.976 1076.76 923.778 1076.76H995.2C996.001 1076.76 996.77 1077.12 997.336 1077.75C997.903 1078.38 998.221 1079.23 998.221 1080.13C998.221 1081.02 997.903 1081.87 997.336 1082.5C996.77 1083.13 996.001 1083.49 995.2 1083.49Z" fill="black"/>
<path d="M969.157 1117.86H923.778C922.976 1117.86 922.208 1117.51 921.641 1116.88C921.075 1116.25 920.756 1115.39 920.756 1114.5C920.756 1113.61 921.075 1112.75 921.641 1112.12C922.208 1111.49 922.976 1111.14 923.778 1111.14H969.157C969.958 1111.14 970.726 1111.49 971.293 1112.12C971.86 1112.75 972.178 1113.61 972.178 1114.5C972.162 1115.39 971.839 1116.23 971.276 1116.86C970.713 1117.49 969.953 1117.85 969.157 1117.86Z" fill="black"/>
<path d="M1693.59 636.623C1689.86 633.566 1686.9 629.474 1685.03 624.754C1683.15 620.034 1682.42 614.849 1682.9 609.716C1678.18 610.863 1673.25 610.246 1668.88 607.959C1664.51 605.673 1660.94 601.845 1658.73 597.069C1654.52 587.25 1653.35 576.156 1655.4 565.52C1648.05 561.554 1641.9 555.268 1637.73 547.445C1633.55 539.621 1631.54 530.604 1631.93 521.516C1632.32 512.428 1635.11 503.668 1639.94 496.327C1644.77 488.985 1651.43 483.385 1659.09 480.223C1657.79 479.568 1656.64 478.571 1655.76 477.318C1654.87 476.064 1654.28 474.592 1654.01 473.026C1648.58 452.845 1659.33 430.243 1675.89 420.22C1684.37 415.605 1693.64 413.056 1703.08 412.743C1712.52 412.429 1721.92 414.359 1730.63 418.404C1730.14 415.728 1730.34 412.951 1731.22 410.401C1732.1 407.85 1733.62 405.632 1735.59 404.008C1739.58 400.835 1744.17 398.719 1749 397.819C1773.29 391.962 1798.59 393.993 1821.87 403.672C1832.93 408.313 1845.08 417.664 1844.17 430.579C1851.4 429.207 1858.82 430.305 1865.48 433.729C1872.13 437.152 1877.69 442.739 1881.44 449.754C1885.18 456.769 1886.93 464.882 1886.44 473.024C1885.96 481.165 1883.27 488.952 1878.73 495.359C1884.19 501.173 1888.13 508.515 1890.15 516.612C1892.17 524.71 1892.19 533.264 1890.21 541.374C1888.23 549.484 1884.32 556.85 1878.9 562.698C1873.48 568.545 1866.74 572.657 1859.4 574.601C1860.18 571.574 1864.35 574.265 1865.44 577.158C1872.63 597.338 1859.4 620.949 1842.54 632.251C1825.68 643.552 1801.15 645.704 1787.07 629.963C1787.14 635.18 1785.63 640.27 1782.78 644.41C1779.93 648.549 1775.9 651.494 1771.36 652.768C1762.19 655.064 1752.66 654.764 1743.62 651.893C1734.56 649.808 1726.46 644.359 1717.7 642.139C1708.94 639.919 1701.51 642.946 1693.59 636.623Z" fill="#F3F3F3"/>
<path d="M1760.6 657.476C1754.6 657.301 1748.63 656.445 1742.78 654.92C1737.98 653.641 1733.29 651.908 1728.76 649.74C1724.84 647.871 1720.8 646.342 1716.67 645.166C1713.99 644.583 1711.26 644.268 1708.52 644.224C1702.65 644.579 1696.84 642.86 1691.9 639.314C1688.26 636.337 1685.28 632.474 1683.19 628.021C1681.09 623.568 1679.94 618.642 1679.82 613.617C1674.97 613.867 1670.17 612.576 1665.96 609.896C1661.76 607.215 1658.33 603.256 1656.07 598.482C1651.7 588.823 1650.28 577.841 1652.02 567.202C1644.88 562.847 1638.95 556.406 1634.85 548.572C1630.76 540.738 1628.67 531.809 1628.8 522.748C1628.93 513.687 1631.28 504.838 1635.59 497.154C1639.91 489.471 1646.03 483.245 1653.29 479.147C1652.3 477.494 1651.54 475.678 1651.05 473.766C1645.49 453.585 1655.71 428.427 1674.38 417.058C1682.51 412.515 1691.39 409.845 1700.47 409.21C1709.56 408.574 1718.67 409.985 1727.25 413.358C1727.98 408.584 1730.23 404.262 1733.59 401.183C1737.94 397.671 1742.97 395.365 1748.28 394.456C1773.13 388.449 1799.01 390.503 1822.84 400.376C1837.16 406.362 1845.92 416.116 1847.01 426.947C1854.37 426.366 1861.72 428.094 1868.24 431.936C1874.75 435.778 1880.17 441.578 1883.87 448.678C1887.57 455.778 1889.41 463.891 1889.18 472.096C1888.94 480.301 1886.64 488.268 1882.54 495.09C1887.43 500.945 1890.98 508.018 1892.91 515.716C1894.84 523.414 1895.08 531.514 1893.62 539.338C1892.16 547.162 1889.03 554.483 1884.51 560.689C1879.99 566.894 1874.19 571.803 1867.62 575.005C1867.78 575.328 1867.92 575.665 1868.04 576.014C1876.02 598.683 1861.57 623.438 1843.87 635.143C1827.92 645.771 1805.14 649.135 1789.49 636.825C1788.25 641.401 1786.01 645.559 1782.96 648.92C1779.91 652.281 1776.15 654.737 1772.02 656.064C1768.3 657.168 1764.45 657.644 1760.6 657.476ZM1682.9 605.881C1683.58 605.856 1684.25 606.12 1684.77 606.621C1685.16 606.975 1685.46 607.431 1685.65 607.948C1685.84 608.465 1685.91 609.026 1685.86 609.581C1685.43 614.156 1686.08 618.776 1687.74 622.987C1689.41 627.197 1692.03 630.854 1695.34 633.596C1699.37 636.474 1704.11 637.841 1708.88 637.497C1712.01 637.534 1715.12 637.917 1718.18 638.641C1722.56 639.87 1726.85 641.49 1731 643.484C1735.19 645.519 1739.54 647.14 1743.99 648.328C1752.52 651.047 1761.53 651.371 1770.21 649.269C1774.01 648.25 1777.4 645.866 1779.86 642.485C1782.31 639.105 1783.7 634.916 1783.81 630.569C1783.74 629.873 1783.87 629.172 1784.17 628.558C1784.47 627.945 1784.94 627.45 1785.5 627.138C1786.06 626.839 1786.7 626.743 1787.32 626.863C1787.93 626.984 1788.5 627.315 1788.94 627.811C1802.3 642.677 1825.2 639.919 1840.79 629.56C1856.38 619.2 1868.88 597.136 1862.36 578.57C1862.2 578.189 1861.97 577.846 1861.69 577.561L1859.94 578.099C1859.43 578.239 1858.89 578.226 1858.38 578.061C1857.87 577.896 1857.41 577.584 1857.04 577.157C1856.68 576.722 1856.42 576.191 1856.3 575.614C1856.17 575.037 1856.18 574.434 1856.32 573.861C1856.57 572.815 1857.12 571.887 1857.88 571.21C1858.64 570.533 1859.57 570.142 1860.55 570.094C1861.09 569.996 1861.64 569.996 1862.18 570.094C1868.14 567.68 1873.5 563.736 1877.84 558.582C1882.18 553.428 1885.36 547.209 1887.13 540.429C1888.86 532.89 1888.79 524.977 1886.91 517.481C1885.03 509.985 1881.42 503.169 1876.44 497.713C1875.92 497.123 1875.6 496.347 1875.55 495.521C1875.49 494.696 1875.7 493.876 1876.14 493.206C1880.21 487.316 1882.6 480.2 1883.01 472.779C1883.41 465.357 1881.8 457.973 1878.39 451.581C1874.98 445.189 1869.92 440.084 1863.87 436.928C1857.83 433.771 1851.07 432.708 1844.47 433.875C1844.02 433.945 1843.57 433.904 1843.13 433.754C1842.7 433.605 1842.3 433.351 1841.97 433.01C1841.63 432.67 1841.37 432.251 1841.2 431.784C1841.02 431.318 1840.95 430.814 1840.97 430.31C1841.69 419.413 1830.94 410.869 1820.61 406.564C1797.88 397.13 1773.2 395.146 1749.49 400.846C1745.13 401.643 1741 403.529 1737.4 406.362C1735.92 407.593 1734.77 409.255 1734.07 411.165C1733.38 413.075 1733.17 415.16 1733.47 417.193C1733.63 417.785 1733.63 418.415 1733.48 419.009C1733.33 419.604 1733.04 420.14 1732.63 420.556C1732.22 420.977 1731.72 421.268 1731.18 421.398C1730.63 421.528 1730.07 421.493 1729.54 421.296C1721.23 417.405 1712.27 415.53 1703.26 415.797C1694.25 416.064 1685.39 418.466 1677.28 422.843C1661.02 432.732 1652.08 454.258 1656.85 471.748C1657.28 473.362 1658.3 476.187 1659.87 476.725C1660.48 476.922 1661.02 477.327 1661.41 477.882C1661.8 478.437 1662.02 479.115 1662.05 479.82C1662.06 480.53 1661.87 481.225 1661.51 481.814C1661.16 482.402 1660.65 482.857 1660.06 483.116C1652.95 486.054 1646.78 491.251 1642.31 498.062C1637.83 504.873 1635.25 512.998 1634.89 521.426C1634.53 529.854 1636.41 538.214 1640.28 545.467C1644.15 552.721 1649.85 558.547 1656.67 562.224C1657.26 562.527 1657.75 563.044 1658.04 563.691C1658.34 564.338 1658.43 565.077 1658.3 565.789C1656.32 575.688 1657.38 586.041 1661.32 595.185C1663.21 599.302 1666.27 602.612 1670.01 604.606C1673.76 606.6 1677.99 607.166 1682.05 606.218C1682.33 606.141 1682.61 606.118 1682.9 606.15V605.881Z" fill="#231F20"/>
<path d="M1656.91 715.731C1656.91 715.731 1553.71 921.842 1539.87 957.898C1526.03 993.954 1587.3 1077.7 1610.99 1057.39C1634.68 1037.07 1656.91 715.731 1656.91 715.731Z" fill="#E26831"/>
<path d="M1854.69 1790.68C1854.69 1790.68 1858.73 1820.95 1852.63 1832.59C1844.33 1849.12 1839.46 1867.51 1838.37 1886.41C1843.18 1892.6 1849.12 1897.6 1855.78 1901.08C1862.44 1904.55 1869.69 1906.43 1877.04 1906.59C1901.51 1906.59 1925.93 1885.6 1928.65 1875.51C1931.36 1865.42 1908.95 1758.26 1908.95 1758.26L1854.69 1790.68Z" fill="#F3F3F3"/>
<path d="M1877.04 1909.48C1869.26 1909.35 1861.59 1907.37 1854.55 1903.68C1847.51 1899.99 1841.25 1894.68 1836.2 1888.09C1835.97 1887.78 1835.81 1887.42 1835.72 1887.04C1835.62 1886.66 1835.6 1886.26 1835.65 1885.87C1836.74 1866.6 1841.74 1847.86 1850.27 1831.04C1854.87 1822.3 1853.05 1799.23 1851.97 1791.15C1851.86 1790.53 1851.94 1789.89 1852.19 1789.32C1852.44 1788.75 1852.85 1788.28 1853.36 1787.99L1907.74 1755.37C1908.12 1755.15 1908.55 1755.04 1908.98 1755.04C1909.41 1755.04 1909.83 1755.15 1910.22 1755.37C1910.59 1755.57 1910.93 1755.87 1911.2 1756.23C1911.47 1756.58 1911.67 1757 1911.79 1757.45C1915.53 1775.55 1934.2 1865.96 1931.42 1876.32C1928.65 1886.68 1902.78 1909.48 1877.04 1909.48ZM1841.27 1885.2C1845.82 1890.76 1851.33 1895.23 1857.48 1898.34C1863.63 1901.45 1870.29 1903.14 1877.04 1903.29C1900.43 1903.29 1923.75 1883.11 1925.99 1874.43C1927.56 1868.51 1917.59 1813.22 1907.07 1762.63L1857.65 1792.37C1858.49 1799.7 1860.61 1823.44 1854.99 1834.14C1847.09 1849.83 1842.41 1867.26 1841.27 1885.2Z" fill="#231F20"/>
<path d="M1686.46 1056.04L1804.11 1093.31L1831.36 704.093C1831.36 704.093 1733.96 677.657 1710.51 690.102C1687.07 702.546 1686.46 1056.04 1686.46 1056.04Z" fill="#231F20"/>
<path d="M1804.11 1096.67H1803.26L1685.86 1059.27C1685.22 1059.08 1684.65 1058.66 1684.25 1058.08C1683.85 1057.49 1683.63 1056.78 1683.62 1056.04C1683.62 996.645 1685.31 699.519 1709.3 687.075C1733.29 674.63 1828.22 699.721 1832.27 700.528C1832.96 700.73 1833.57 701.198 1833.99 701.849C1834.41 702.5 1834.61 703.294 1834.56 704.093L1807.31 1093.31C1807.27 1093.8 1807.14 1094.28 1806.92 1094.71C1806.7 1095.14 1806.4 1095.51 1806.04 1095.8C1805.51 1096.33 1804.82 1096.64 1804.11 1096.67ZM1689.3 1053.49L1801.21 1088.94L1827.98 706.65C1799.34 699.116 1729.48 683.644 1711.54 693.196C1697.94 700.596 1689.79 883.835 1689.48 1053.49H1689.3Z" fill="#231F20"/>
<path d="M1725.68 1720.66V1811.74L1687.67 1824.18L1688.58 1805.55L1671.42 1825.26C1671.42 1825.26 1569.3 1846.25 1569.84 1830.64C1570.39 1815.03 1580.72 1806.56 1593.59 1798.82C1607.43 1790.48 1643.8 1767.01 1643.8 1767.01L1649.24 1700.21" fill="#F3F3F3"/>
<path d="M1588.75 1839.39C1582.01 1840.22 1575.19 1838.86 1569.12 1835.48C1568.45 1834.9 1567.92 1834.15 1567.57 1833.3C1567.21 1832.45 1567.04 1831.51 1567.06 1830.57C1567.67 1813.29 1579.57 1803.67 1592.26 1796.13C1604.95 1788.6 1634.56 1769.22 1641.2 1765.12L1646.46 1699.87C1646.55 1699.07 1646.91 1698.33 1647.48 1697.82C1648.04 1697.31 1648.76 1697.05 1649.48 1697.11C1649.84 1697.15 1650.2 1697.26 1650.52 1697.45C1650.84 1697.64 1651.13 1697.9 1651.36 1698.21C1651.59 1698.52 1651.76 1698.89 1651.87 1699.28C1651.97 1699.66 1652 1700.07 1651.96 1700.48L1646.58 1767.41C1646.53 1767.89 1646.38 1768.36 1646.13 1768.77C1645.89 1769.18 1645.57 1769.52 1645.19 1769.76C1644.83 1769.76 1608.94 1793.37 1594.92 1801.65C1580.9 1809.92 1573.04 1817.52 1572.62 1830.91C1575.52 1836.56 1620.05 1832.73 1670.03 1822.5L1686.58 1803.53C1686.99 1803.09 1687.5 1802.79 1688.06 1802.67C1688.62 1802.55 1689.2 1802.62 1689.72 1802.86C1690.23 1803.11 1690.66 1803.53 1690.95 1804.06C1691.24 1804.59 1691.38 1805.2 1691.36 1805.82L1690.63 1820.15L1722.96 1809.59V1720.79C1722.95 1720.39 1723.01 1719.99 1723.15 1719.61C1723.28 1719.24 1723.48 1718.9 1723.73 1718.61C1723.99 1718.32 1724.29 1718.09 1724.62 1717.93C1724.96 1717.78 1725.32 1717.7 1725.68 1717.7C1726.41 1717.7 1727.12 1718.02 1727.64 1718.6C1728.16 1719.18 1728.46 1719.97 1728.46 1720.79V1811.87C1728.47 1812.54 1728.27 1813.2 1727.91 1813.73C1727.55 1814.27 1727.04 1814.65 1726.46 1814.83L1688.46 1827.28C1688.03 1827.41 1687.59 1827.43 1687.16 1827.33C1686.73 1827.24 1686.33 1827.04 1685.98 1826.74C1685.63 1826.44 1685.35 1826.05 1685.18 1825.61C1685 1825.16 1684.92 1824.67 1684.95 1824.18L1685.43 1813.69L1673.35 1827.48C1672.95 1827.95 1672.41 1828.25 1671.84 1828.35C1644.42 1834.27 1616.65 1837.96 1588.75 1839.39Z" fill="#231F20"/>
<path d="M1908.16 1092.77L1939.64 1784.43C1939.64 1784.43 1936.62 1809.72 1888.64 1812.88C1840.67 1816.04 1845.5 1803.13 1845.5 1803.13L1770.45 1295.79L1739.7 1746.49L1636.37 1753.95L1656.91 1043.6L1908.16 1092.77Z" fill="#231F20"/>
<path d="M1874.56 1816.72C1857.28 1816.72 1847.07 1813.96 1843.57 1808.44C1842.52 1806.88 1842.07 1804.92 1842.3 1802.99L1771.72 1324.04L1742.9 1746.69C1742.84 1747.5 1742.52 1748.26 1742 1748.83C1741.48 1749.4 1740.79 1749.74 1740.06 1749.78L1636.55 1757.12C1636.13 1757.15 1635.71 1757.08 1635.31 1756.92C1634.91 1756.76 1634.55 1756.5 1634.25 1756.17C1633.95 1755.86 1633.71 1755.47 1633.56 1755.04C1633.4 1754.61 1633.33 1754.15 1633.35 1753.69L1653.89 1043.33C1653.9 1042.84 1654.01 1042.36 1654.2 1041.93C1654.39 1041.49 1654.67 1041.11 1655.01 1040.8C1655.35 1040.49 1655.74 1040.27 1656.16 1040.15C1656.59 1040.03 1657.03 1040.01 1657.46 1040.1L1908.7 1089.48C1909.38 1089.6 1910 1089.98 1910.45 1090.56C1910.91 1091.14 1911.16 1091.87 1911.18 1092.64L1942.48 1784.29C1942.48 1786.04 1938.55 1812.95 1888.7 1816.18C1883.57 1816.51 1878.85 1816.72 1874.56 1816.72ZM1848.28 1804.34L1848.82 1804.94C1850.7 1806.96 1858.31 1811.67 1888.34 1809.52C1932.75 1806.63 1936.68 1784.23 1936.68 1783.96L1905.44 1095.6L1659.81 1047.63L1639.45 1750.39L1737.04 1743.66L1767.61 1295.92C1767.68 1295.11 1768.02 1294.34 1768.55 1293.78C1769.08 1293.21 1769.78 1292.87 1770.51 1292.83C1771.24 1292.78 1771.96 1293.04 1772.53 1293.55C1773.1 1294.06 1773.48 1294.78 1773.59 1295.59L1848.4 1802.93C1848.55 1803.54 1848.55 1804.19 1848.4 1804.81L1848.28 1804.34Z" fill="#231F20"/>
<path d="M1810.15 666.894C1810.15 666.894 1769.85 1136.63 1787.92 1163.54C1805.98 1190.45 1917.47 1211.77 1925.81 1159.57C1939.52 1073.73 1931.85 765.375 1915.77 736.382C1850.88 672.141 1810.15 666.894 1810.15 666.894Z" fill="#E26831"/>
<path d="M1656.91 715.731C1656.91 715.731 1599.27 1142.35 1610.15 1154.73C1621.02 1167.1 1680.12 1183.85 1696.43 1171.41C1712.75 1158.96 1735.04 669.114 1735.04 669.114C1705.63 676.328 1678.59 692.462 1656.91 715.731Z" fill="#E26831"/>
<path d="M1738.19 660.638L1733.23 706.179C1735.92 715.188 1741.56 722.733 1749.04 727.3C1756.52 731.866 1765.27 733.116 1773.53 730.799C1804.71 723.467 1805.08 703.353 1805.08 703.353C1805.08 703.353 1809.31 600.701 1809.31 600.432C1808.56 598.057 1807.54 595.797 1806.28 593.706C1801.63 582.001 1794.99 565.924 1796.98 552.941C1798.66 542.238 1803.46 532.449 1810.64 525.092C1806.94 526.924 1802.91 527.781 1798.87 527.597C1794.83 527.414 1790.88 526.194 1787.33 524.033C1783.78 521.871 1780.73 518.827 1778.41 515.137C1776.09 511.447 1774.57 507.211 1773.96 502.758C1773.96 507.4 1770.27 510.831 1766.77 513.387C1761.59 517.868 1755.19 520.242 1748.64 520.114C1740.06 519.037 1733.65 510.898 1725.62 507.4C1726.86 510.468 1727.07 513.932 1726.2 517.157C1725.34 520.382 1723.46 523.151 1720.9 524.957C1715.66 528.411 1709.41 529.427 1703.5 527.782C1707.43 528.657 1704.11 577.292 1704.05 581.597C1703.49 596.673 1703.81 611.773 1705.01 626.802C1707.91 653.642 1738.19 660.638 1738.19 660.638Z" fill="#F3F3F3"/>
<path d="M1764.41 735.239C1738.49 735.239 1730.27 707.524 1730.21 707.188C1730.12 706.722 1730.12 706.241 1730.21 705.775L1734.8 663.194C1726.89 660.638 1704.59 651.355 1701.93 626.465C1700.78 612.445 1700.43 598.357 1700.9 584.288V580.79C1700.9 580.117 1700.9 578.234 1700.9 575.543C1702.66 542.918 1702.11 532.693 1701.27 530.002C1700.82 529.628 1700.48 529.118 1700.28 528.533C1700.09 527.948 1700.05 527.314 1700.18 526.706C1700.24 526.272 1700.39 525.856 1700.6 525.486C1700.81 525.115 1701.09 524.797 1701.42 524.552C1701.75 524.306 1702.12 524.138 1702.51 524.057C1702.9 523.976 1703.3 523.985 1703.68 524.083C1708.82 525.475 1714.23 524.658 1718.85 521.795C1720.81 520.419 1722.27 518.306 1722.96 515.839C1723.64 513.372 1723.51 510.713 1722.6 508.342C1722.29 507.736 1722.16 507.039 1722.22 506.348C1722.29 505.656 1722.54 505.004 1722.95 504.48C1723.36 503.957 1723.91 503.587 1724.52 503.424C1725.12 503.26 1725.76 503.31 1726.34 503.566C1729.74 505.208 1732.98 507.237 1736.01 509.62C1739.7 512.909 1744.02 515.21 1748.64 516.347C1754.46 516.396 1760.14 514.291 1764.77 510.36C1768.7 507.534 1770.82 504.978 1770.82 502.557C1770.83 501.703 1771.13 500.886 1771.65 500.264C1772.18 499.642 1772.89 499.26 1773.66 499.193C1774.41 499.116 1775.17 499.366 1775.76 499.892C1776.36 500.418 1776.75 501.18 1776.86 502.018C1777.35 505.994 1778.66 509.788 1780.69 513.103C1782.72 516.417 1785.41 519.161 1788.56 521.118C1791.71 523.075 1795.22 524.191 1798.82 524.379C1802.42 524.566 1806.01 523.82 1809.31 522.199C1809.96 521.861 1810.69 521.798 1811.38 522.021C1812.07 522.243 1812.67 522.737 1813.05 523.41C1813.44 524.076 1813.61 524.873 1813.52 525.661C1813.43 526.449 1813.09 527.176 1812.57 527.715C1805.84 534.549 1801.35 543.687 1799.82 553.681C1798.07 565.184 1804.05 580.588 1808.4 591.217L1808.94 592.495C1809.19 593.097 1809.47 593.681 1809.79 594.244C1811.1 596.22 1811.93 598.536 1812.21 600.971C1812.21 600.971 1812.21 600.971 1807.98 704.093C1807.98 704.968 1807.19 726.965 1774.02 734.633C1770.84 735.206 1767.62 735.409 1764.41 735.239ZM1736.13 705.775C1738.59 713.829 1743.69 720.548 1750.42 724.579C1757.15 728.611 1765 729.655 1772.39 727.503C1800.54 720.776 1801.51 703.959 1801.57 703.219C1801.63 702.479 1805.74 601.778 1805.8 600.298C1805.8 600.298 1804.77 598.28 1804.29 597.338C1803.81 596.55 1803.38 595.717 1803.02 594.849L1802.54 593.638C1797.89 581.799 1791.48 565.722 1793.53 552.201C1794.69 544.433 1797.44 537.067 1801.57 530.675C1795.95 531.051 1790.35 529.702 1785.38 526.773C1779.89 523.306 1775.52 518.013 1772.87 511.638C1771.37 513.298 1769.71 514.765 1767.91 516.01C1762.1 520.717 1755.03 523.089 1747.85 522.737C1742.32 521.59 1737.1 519.01 1732.63 515.203L1729.36 512.849C1729.19 515.659 1728.45 518.39 1727.19 520.836C1725.93 523.282 1724.2 525.381 1722.11 526.975C1717.77 530.07 1712.63 531.488 1707.49 531.011C1708.29 545.875 1708.06 560.784 1706.82 575.61C1706.82 578.167 1706.82 579.916 1706.82 580.588V584.019C1706.38 597.819 1706.72 611.637 1707.85 625.389C1710.45 650.211 1738.06 656.938 1738.61 657.005C1739.34 657.197 1739.98 657.679 1740.41 658.36C1740.85 659.041 1741.04 659.875 1740.97 660.705L1736.13 705.775Z" fill="#231F20"/>
<path d="M1732.51 577.09C1732.51 577.09 1714.38 603.392 1718.19 608.505C1721.99 613.617 1732.69 611.33 1732.69 611.33" fill="#F3F3F3"/>
<path d="M1727.37 615.164C1725.29 615.333 1723.2 614.993 1721.24 614.168C1719.29 613.343 1717.53 612.053 1716.07 610.388C1711.96 604.469 1721.63 587.853 1730.39 574.938C1730.87 574.224 1731.59 573.752 1732.38 573.626C1733.17 573.5 1733.98 573.73 1734.62 574.265C1734.94 574.524 1735.22 574.854 1735.43 575.234C1735.63 575.614 1735.77 576.036 1735.82 576.476C1735.88 576.916 1735.86 577.364 1735.75 577.793C1735.65 578.222 1735.47 578.624 1735.22 578.974C1727.19 590.88 1720.54 603.796 1721.02 606.688C1722.48 608.639 1728.7 608.639 1732.38 607.899C1732.77 607.811 1733.17 607.809 1733.56 607.893C1733.95 607.977 1734.32 608.145 1734.66 608.389C1734.99 608.632 1735.27 608.946 1735.49 609.312C1735.72 609.679 1735.87 610.09 1735.95 610.523C1736.03 610.96 1736.03 611.411 1735.95 611.848C1735.87 612.286 1735.71 612.701 1735.49 613.071C1735.26 613.44 1734.97 613.756 1734.64 614C1734.3 614.244 1733.93 614.411 1733.53 614.492C1731.5 614.927 1729.44 615.152 1727.37 615.164Z" fill="#231F20"/>
<path d="M1738.19 660.638C1738.19 660.638 1762.36 660.638 1773.41 653.373C1773.41 653.373 1763.99 684.787 1737.88 692.523L1738.19 660.638Z" fill="#231F20"/>
<path d="M1737.88 695.887C1737.21 695.901 1736.55 695.665 1736.01 695.214C1735.64 694.901 1735.34 694.493 1735.14 694.025C1734.94 693.556 1734.85 693.041 1734.86 692.523L1735.16 660.638C1735.16 659.746 1735.48 658.89 1736.05 658.26C1736.62 657.629 1737.38 657.275 1738.19 657.275C1739.45 657.275 1761.69 657.275 1771.84 650.548C1772.35 650.157 1772.95 649.948 1773.56 649.948C1774.18 649.948 1774.78 650.157 1775.29 650.548C1775.76 650.991 1776.1 651.578 1776.27 652.236C1776.44 652.894 1776.44 653.593 1776.25 654.247C1775.83 655.593 1765.98 687.411 1738.61 695.618L1737.88 695.887ZM1741.15 664.001V687.949C1752.75 682.401 1762.2 672.432 1767.79 659.831C1759.11 662.502 1750.16 663.971 1741.15 664.203V664.001Z" fill="#231F20"/>
<path d="M1940.25 1046.56H1939.94C1936.02 1046.02 1844.17 1034.18 1814.99 1015.95C1814.63 1015.74 1814.33 1015.45 1814.08 1015.11C1813.83 1014.76 1813.64 1014.36 1813.54 1013.94C1813.43 1013.51 1813.4 1013.06 1813.45 1012.62C1813.5 1012.18 1813.64 1011.76 1813.84 1011.38C1814.24 1010.61 1814.9 1010.06 1815.66 1009.82C1816.43 1009.58 1817.25 1009.68 1817.95 1010.1C1846.04 1027.66 1939.7 1039.7 1940.61 1039.83C1941.41 1039.88 1942.16 1040.29 1942.69 1040.96C1943.22 1041.63 1943.5 1042.5 1943.45 1043.4C1943.4 1044.29 1943.04 1045.12 1942.44 1045.72C1941.84 1046.31 1941.05 1046.61 1940.25 1046.56Z" fill="#231F20"/>
<path d="M1915.77 736.382C1915.77 736.382 2098.02 1025.64 2019.95 1100.44C1948.4 1168.85 1790.33 1055.24 1790.33 1055.24L1799.88 959.176C1799.88 959.176 1925.02 1036.74 1927.07 1000.61C1930.04 947.471 1868.7 874.889 1868.7 874.889C1863.19 863.119 1859.86 850.237 1858.9 837.005C1857.95 823.774 1859.39 810.464 1863.14 797.866C1866.71 783.598 1873.38 770.526 1882.56 759.804C1891.74 749.081 1903.14 741.038 1915.77 736.382Z" fill="#E26831"/>
<path d="M1631.47 969.535C1631.08 969.47 1630.7 969.318 1630.36 969.09C1630.02 968.862 1629.73 968.561 1629.49 968.204C1629.26 967.848 1629.09 967.444 1628.99 967.014C1628.9 966.585 1628.88 966.138 1628.94 965.701C1634.56 923.725 1661.57 763.424 1661.87 761.81C1662.03 760.946 1662.48 760.184 1663.14 759.682C1663.79 759.181 1664.59 758.98 1665.37 759.119C1666.16 759.298 1666.86 759.814 1667.31 760.555C1667.76 761.297 1667.93 762.206 1667.79 763.088C1667.49 764.702 1640.48 924.533 1634.92 966.71C1634.79 967.586 1634.35 968.37 1633.71 968.897C1633.07 969.423 1632.27 969.652 1631.47 969.535Z" fill="#231F20"/>
<path d="M1606.04 1096.34H1787.73C1791.12 1096.27 1794.45 1095.36 1797.48 1093.68C1800.51 1092.01 1803.17 1089.6 1805.26 1086.64C1807.35 1083.68 1808.83 1080.23 1809.58 1076.56C1810.33 1072.89 1810.34 1069.07 1809.61 1065.39L1771 857.466C1769.89 851.501 1767 846.131 1762.79 842.233C1758.59 838.335 1753.32 836.14 1747.85 836.007H1568.81C1565.23 836.071 1561.7 837.024 1558.48 838.796C1555.27 840.567 1552.44 843.114 1550.22 846.251C1548 849.388 1546.43 853.036 1545.64 856.93C1544.84 860.825 1544.83 864.868 1545.61 868.767L1584.16 1076.02C1585.14 1081.7 1587.85 1086.83 1591.84 1090.53C1595.83 1094.23 1600.84 1096.28 1606.04 1096.34Z" fill="#F3F3F3"/>
<path d="M1787.73 1099.36H1606.04C1600.22 1099.28 1594.61 1096.97 1590.13 1092.83C1585.66 1088.7 1582.59 1082.98 1581.44 1076.63L1542.95 869.372C1542.1 864.909 1542.16 860.291 1543.12 855.855C1544.08 851.42 1545.92 847.281 1548.51 843.743C1550.96 840.369 1554.05 837.646 1557.56 835.773C1561.08 833.899 1564.92 832.922 1568.81 832.913H1747.85C1753.97 833.011 1759.88 835.442 1764.59 839.799C1769.29 844.157 1772.51 850.179 1773.72 856.86L1812.33 1064.72C1813.14 1068.96 1813.09 1073.35 1812.18 1077.56C1811.27 1081.77 1809.52 1085.71 1807.07 1089.07C1804.73 1092.27 1801.79 1094.86 1798.44 1096.64C1795.1 1098.42 1791.44 1099.35 1787.73 1099.36ZM1568.81 839.102C1565.74 839.102 1562.71 839.869 1559.94 841.348C1557.16 842.826 1554.73 844.978 1552.8 847.645C1550.78 850.44 1549.33 853.695 1548.55 857.182C1547.78 860.669 1547.7 864.302 1548.33 867.825L1586.88 1075.15C1587.75 1080.11 1590.13 1084.59 1593.62 1087.84C1597.11 1091.09 1601.49 1092.9 1606.04 1092.97H1787.73C1790.62 1092.96 1793.47 1092.22 1796.07 1090.83C1798.68 1089.43 1800.97 1087.41 1802.78 1084.9C1804.72 1082.26 1806.1 1079.16 1806.82 1075.84C1807.54 1072.53 1807.59 1069.07 1806.95 1065.73L1768.28 857.802C1767.34 852.516 1764.8 847.748 1761.08 844.296C1757.36 840.843 1752.69 838.915 1747.85 838.832L1568.81 839.102Z" fill="#231F20"/>
<path d="M1825.14 991.936C1826.19 984.667 1825.69 977.225 1823.69 970.208C1821.71 965.493 1818.99 961.21 1815.65 957.562C1809.98 950.835 1803.92 944.521 1797.52 938.659C1791.48 933.412 1784.65 928.3 1777.4 930.049C1779.64 942.101 1785.76 952.822 1794.62 960.185C1791.73 956.332 1787.88 953.504 1783.56 952.045C1780.66 951.036 1776.74 951.171 1775.53 954.4C1775.25 955.438 1775.16 956.529 1775.28 957.604C1775.39 958.68 1775.7 959.719 1776.19 960.656C1779.57 968.984 1784.77 976.243 1791.3 981.778L1784.29 976.8C1782.5 975.336 1780.43 974.346 1778.25 973.908C1777.17 973.712 1776.07 973.907 1775.1 974.465C1774.13 975.022 1773.35 975.912 1772.87 977.002C1772.43 978.823 1772.6 980.761 1773.35 982.451C1775.18 987.296 1778.19 991.47 1782.05 994.492C1779.53 992.087 1776.49 990.443 1773.23 989.716C1771.59 989.441 1769.91 989.833 1768.5 990.821C1767.09 991.808 1766.05 993.326 1765.56 995.097C1765.38 997.126 1765.76 999.167 1766.65 1000.95C1771.84 1012.45 1784.23 1013.73 1790.27 1023.42C1794.8 1030.62 1792.69 1038.35 1801.87 1042.72C1824.84 1053.28 1823.87 1007.27 1825.14 991.936Z" fill="#F3F3F3"/>
<path d="M1808.52 1047.63C1805.93 1047.59 1803.38 1046.95 1801.03 1045.75C1798.47 1044.6 1796.21 1042.77 1794.43 1040.43C1792.65 1038.08 1791.41 1035.29 1790.82 1032.3C1790.2 1029.92 1789.29 1027.66 1788.1 1025.57C1785.37 1021.9 1781.97 1018.92 1778.13 1016.83C1772.36 1013.78 1767.54 1008.88 1764.29 1002.77C1763 1000.33 1762.51 997.482 1762.9 994.694C1763.43 992.443 1764.6 990.442 1766.23 988.988C1767.86 987.534 1769.87 986.704 1771.96 986.621C1771.55 985.773 1771.19 984.897 1770.88 983.998C1769.78 981.529 1769.59 978.686 1770.33 976.06C1770.96 974.453 1772 973.088 1773.32 972.142C1774.64 971.195 1776.19 970.709 1777.76 970.746C1776.15 968.065 1774.76 965.228 1773.59 962.27C1772.9 960.925 1772.48 959.429 1772.35 957.885C1772.23 956.341 1772.4 954.785 1772.87 953.324C1773.56 951.718 1774.68 950.388 1776.08 949.51C1777.47 948.633 1779.07 948.25 1780.66 948.413C1777.78 943.1 1775.74 937.275 1774.62 931.192C1774.45 930.753 1774.36 930.279 1774.36 929.799C1774.36 929.32 1774.46 928.846 1774.63 928.409C1774.81 927.971 1775.07 927.58 1775.39 927.26C1775.71 926.94 1776.09 926.698 1776.49 926.551C1785.14 924.533 1793.11 930.452 1799.09 935.834C1805.64 941.77 1811.82 948.198 1817.58 955.073C1821.17 958.939 1824.1 963.498 1826.22 968.526C1828.45 976.001 1829.01 983.965 1827.86 991.734C1827.86 993.685 1827.86 996.106 1827.43 998.864C1826.71 1014.34 1825.5 1037.68 1815.35 1044.88C1813.36 1046.51 1810.99 1047.47 1808.52 1047.63ZM1772.75 992.945C1771.92 992.885 1771.1 993.112 1770.4 993.594C1769.7 994.076 1769.14 994.789 1768.82 995.636C1768.76 996.957 1769.06 998.267 1769.67 999.403C1772.43 1004.33 1776.42 1008.26 1781.15 1010.7C1785.86 1013.2 1789.99 1016.86 1793.23 1021.4C1794.79 1024.05 1795.97 1026.96 1796.74 1030.01C1797.03 1032.13 1797.81 1034.12 1799.01 1035.8C1800.2 1037.48 1801.78 1038.77 1803.57 1039.56C1804.91 1040.39 1806.41 1040.83 1807.95 1040.83C1809.48 1040.83 1810.99 1040.39 1812.33 1039.56C1820.06 1034.18 1821.21 1011.24 1821.87 999.201C1821.87 996.308 1821.87 993.752 1822.3 991.801C1823.3 985.057 1822.86 978.144 1821.03 971.621C1819.22 967.265 1816.7 963.319 1813.6 959.983C1807.93 953.357 1801.87 947.155 1795.47 941.417C1791.5 937.216 1786.53 934.368 1781.15 933.21C1783.08 940.305 1786.47 946.8 1791.06 952.18C1793.33 953.722 1795.37 955.651 1797.1 957.898C1797.6 958.516 1797.88 959.319 1797.88 960.151C1797.88 960.984 1797.6 961.787 1797.1 962.405C1796.6 963.016 1795.91 963.396 1795.18 963.471C1794.44 963.546 1793.7 963.309 1793.11 962.808C1791.1 961.18 1789.2 959.381 1787.43 957.427C1786.01 956.462 1784.49 955.694 1782.9 955.14C1780.97 954.534 1778.85 954.736 1778.55 955.611C1778.38 956.85 1778.61 958.116 1779.21 959.176C1782.34 967.019 1787.21 973.847 1793.35 979.02C1793.67 979.268 1793.94 979.584 1794.15 979.95C1794.35 980.316 1794.49 980.724 1794.55 981.151C1794.62 981.577 1794.6 982.013 1794.51 982.433C1794.42 982.853 1794.25 983.248 1794.02 983.594C1793.58 984.313 1792.9 984.813 1792.13 984.989C1791.37 985.164 1790.57 985.002 1789.91 984.536L1782.9 979.626C1781.55 978.454 1779.98 977.628 1778.31 977.204C1777.89 977.101 1777.46 977.135 1777.06 977.302C1776.67 977.47 1776.32 977.763 1776.07 978.146C1775.95 979.164 1776.12 980.201 1776.56 981.106C1778.02 985.066 1780.42 988.508 1783.5 991.061L1784.23 991.667C1784.55 991.915 1784.83 992.234 1785.04 992.603C1785.26 992.972 1785.4 993.385 1785.47 993.818C1785.54 994.25 1785.53 994.693 1785.44 995.121C1785.35 995.548 1785.18 995.952 1784.95 996.308C1784.5 997.035 1783.81 997.534 1783.03 997.697C1782.25 997.861 1781.44 997.676 1780.79 997.183L1780 996.577C1778.08 994.807 1775.8 993.584 1773.35 993.012L1772.75 992.945Z" fill="#231F20"/>
<path d="M1548.45 977.473C1549.36 963.548 1553.1 948.144 1563.68 941.148C1566.95 939.056 1570.64 937.916 1574.41 937.833C1578.18 937.751 1581.91 938.729 1585.25 940.677C1585.86 940.944 1586.41 941.361 1586.86 941.896C1587.31 942.432 1587.65 943.072 1587.85 943.771C1588.27 945.991 1586.46 947.808 1584.83 948.951C1581.33 951.394 1577.52 953.231 1573.53 954.4C1576.78 954.104 1580.03 954.942 1582.84 956.798C1585.64 958.655 1587.86 961.437 1589.18 964.759C1585.24 969.914 1579.73 973.268 1573.71 974.177C1575.71 973.584 1577.82 973.678 1579.78 974.446C1581.73 975.214 1583.42 976.621 1584.65 978.482C1588.57 984.805 1585.43 986.554 1581.14 990.321C1583.03 989.875 1584.99 990.086 1586.76 990.927C1587.66 991.381 1588.41 992.123 1588.93 993.057C1589.45 993.992 1589.7 995.077 1589.66 996.174C1589.36 1000.21 1584.95 1001.49 1581.87 1003.51C1579.38 1005.19 1577.5 1007.78 1576.55 1010.84C1576.2 1012.59 1575.69 1014.31 1575.04 1015.95C1569 1027.99 1555.58 1017.97 1552.26 1009.22C1548.85 999.096 1547.55 988.241 1548.45 977.473Z" fill="#F3F3F3"/>
<path d="M1567.18 1024.9H1566.46C1562.81 1024.33 1559.35 1022.75 1556.39 1020.3C1553.44 1017.86 1551.08 1014.63 1549.54 1010.91C1545.93 1000.18 1544.52 988.684 1545.43 977.271C1546.28 963.817 1549.84 946.395 1562.17 938.255C1565.88 935.876 1570.06 934.579 1574.34 934.485C1578.62 934.391 1582.85 935.503 1586.64 937.717C1587.65 938.205 1588.56 938.943 1589.28 939.875C1590 940.807 1590.52 941.909 1590.81 943.099C1591.17 944.982 1590.81 948.548 1586.46 951.776L1583.8 953.525C1587.43 955.714 1590.31 959.195 1591.96 963.414C1592.17 963.991 1592.24 964.621 1592.15 965.238C1592.07 965.854 1591.83 966.433 1591.47 966.912C1589.52 969.578 1587.17 971.853 1584.52 973.639C1585.54 974.503 1586.42 975.549 1587.12 976.733C1590.39 981.913 1589.84 985.411 1588.09 988.034C1589.53 988.784 1590.74 989.999 1591.56 991.522C1592.38 993.045 1592.77 994.806 1592.68 996.577C1592.32 1001.56 1588.33 1003.78 1585.49 1005.32L1583.44 1006.53C1581.55 1007.77 1580.13 1009.73 1579.45 1012.05C1579.27 1012.55 1579.13 1013.07 1579.03 1013.6C1578.75 1015.03 1578.31 1016.41 1577.7 1017.7C1576.69 1019.84 1575.18 1021.64 1573.33 1022.91C1571.48 1024.17 1569.35 1024.86 1567.18 1024.9ZM1551.47 977.809C1550.62 988.136 1551.83 998.545 1555.04 1008.28C1556.16 1010.85 1557.81 1013.09 1559.86 1014.81C1561.91 1016.53 1564.29 1017.68 1566.82 1018.17C1567.99 1018.21 1569.14 1017.86 1570.14 1017.18C1571.14 1016.5 1571.94 1015.51 1572.44 1014.34C1572.77 1013.51 1573.04 1012.66 1573.23 1011.78C1573.23 1011.11 1573.53 1010.5 1573.71 1009.83C1574.87 1005.99 1577.23 1002.74 1580.36 1000.68L1582.77 999.201C1585.07 997.99 1586.58 997.048 1586.7 995.905C1586.82 994.761 1586.16 994.425 1585.43 994.021C1584.22 993.505 1582.9 993.388 1581.62 993.685C1580.97 993.789 1580.31 993.653 1579.73 993.298C1579.16 992.943 1578.7 992.389 1578.43 991.718C1578.17 991.048 1578.1 990.299 1578.25 989.586C1578.4 988.872 1578.76 988.233 1579.27 987.765L1580.42 986.756C1584.1 983.594 1584.1 983.595 1582.17 980.5C1580.23 977.406 1578.24 977.002 1574.13 977.608C1573.73 977.674 1573.33 977.648 1572.94 977.533C1572.55 977.418 1572.18 977.216 1571.87 976.939C1571.55 976.662 1571.29 976.316 1571.1 975.922C1570.9 975.528 1570.78 975.094 1570.75 974.648C1570.65 973.765 1570.86 972.873 1571.35 972.166C1571.83 971.46 1572.55 970.998 1573.35 970.881C1577.93 970.165 1582.17 967.803 1585.43 964.154C1584.28 961.911 1582.58 960.085 1580.52 958.892C1578.46 957.699 1576.14 957.191 1573.83 957.427C1573.07 957.528 1572.31 957.307 1571.69 956.808C1571.08 956.309 1570.65 955.569 1570.51 954.736C1570.36 953.9 1570.5 953.032 1570.9 952.308C1571.31 951.584 1571.94 951.057 1572.68 950.835C1576.37 949.742 1579.9 948.041 1583.13 945.79C1584.34 944.982 1584.77 944.31 1584.83 944.041L1583.74 943.301C1580.87 941.607 1577.66 940.755 1574.42 940.825C1571.17 940.896 1568 941.887 1565.19 943.704C1555.1 950.431 1552.14 965.701 1551.41 977.339L1551.47 977.809Z" fill="#231F20"/>
<path d="M1705.86 589.468C1701.44 589.468 1697.11 588.008 1693.44 585.273C1689.76 582.538 1686.89 578.651 1685.2 574.103C1683.51 569.555 1683.07 564.551 1683.93 559.723C1684.79 554.894 1686.92 550.46 1690.05 546.979C1693.18 543.498 1697.16 541.127 1701.5 540.167C1705.83 539.207 1710.33 539.7 1714.41 541.583C1718.5 543.467 1721.99 546.657 1724.45 550.75C1726.9 554.843 1728.22 559.656 1728.22 564.578C1728.2 571.174 1725.84 577.494 1721.65 582.158C1717.46 586.822 1711.78 589.45 1705.86 589.468ZM1705.86 546.416C1702.63 546.416 1699.48 547.481 1696.79 549.477C1694.11 551.472 1692.02 554.309 1690.79 557.628C1689.55 560.947 1689.23 564.598 1689.86 568.122C1690.49 571.645 1692.04 574.881 1694.32 577.421C1696.6 579.961 1699.51 581.691 1702.68 582.392C1705.84 583.093 1709.12 582.733 1712.1 581.358C1715.08 579.984 1717.63 577.656 1719.42 574.669C1721.22 571.682 1722.17 568.17 1722.17 564.578C1722.16 559.767 1720.43 555.157 1717.38 551.755C1714.32 548.353 1710.18 546.433 1705.86 546.416Z" fill="#231F20"/>
<path d="M1755.65 589.468C1751.23 589.468 1746.9 588.008 1743.23 585.273C1739.55 582.538 1736.69 578.651 1734.99 574.103C1733.3 569.555 1732.86 564.551 1733.72 559.723C1734.58 554.894 1736.71 550.46 1739.84 546.979C1742.97 543.498 1746.95 541.127 1751.29 540.167C1755.62 539.207 1760.12 539.7 1764.2 541.583C1768.29 543.467 1771.78 546.657 1774.24 550.75C1776.69 554.843 1778.01 559.656 1778.01 564.578C1778.01 571.179 1775.65 577.51 1771.46 582.178C1767.26 586.845 1761.58 589.468 1755.65 589.468ZM1755.65 546.416C1752.42 546.416 1749.27 547.481 1746.58 549.477C1743.9 551.472 1741.81 554.309 1740.58 557.628C1739.34 560.947 1739.02 564.598 1739.65 568.122C1740.28 571.645 1741.83 574.881 1744.11 577.421C1746.39 579.961 1749.3 581.691 1752.47 582.392C1755.63 583.093 1758.91 582.733 1761.89 581.358C1764.87 579.984 1767.42 577.656 1769.21 574.669C1771.01 571.682 1771.96 568.17 1771.96 564.578C1771.96 559.761 1770.24 555.142 1767.18 551.735C1764.12 548.329 1759.98 546.416 1755.65 546.416Z" fill="#231F20"/>
<path d="M1735.65 630.569C1727.91 630.397 1720.31 628.281 1713.41 624.38C1712.73 623.93 1712.23 623.202 1712.01 622.35C1711.8 621.497 1711.89 620.586 1712.26 619.806C1712.66 619.031 1713.31 618.461 1714.08 618.221C1714.85 617.982 1715.67 618.092 1716.37 618.528C1717.52 619.2 1744.41 635.614 1760.84 607.899C1761.29 607.15 1761.98 606.626 1762.76 606.443C1763.55 606.26 1764.37 606.433 1765.04 606.924C1765.72 607.415 1766.19 608.183 1766.35 609.06C1766.52 609.936 1766.36 610.85 1765.92 611.599C1762.8 617.427 1758.36 622.244 1753.05 625.571C1747.74 628.899 1741.74 630.622 1735.65 630.569Z" fill="#231F20"/>
<path d="M1736.31 567.942H1725.19C1724.39 567.942 1723.62 567.587 1723.06 566.957C1722.49 566.326 1722.17 565.47 1722.17 564.578C1722.17 563.686 1722.49 562.831 1723.06 562.2C1723.62 561.569 1724.39 561.215 1725.19 561.215H1736.31C1737.11 561.215 1737.88 561.569 1738.45 562.2C1739.02 562.831 1739.33 563.686 1739.33 564.578C1739.32 565.465 1738.99 566.31 1738.43 566.937C1737.87 567.565 1737.11 567.924 1736.31 567.942Z" fill="#231F20"/>
<path d="M1819.58 581.395C1819.32 581.459 1819.05 581.459 1818.79 581.395L1774.2 567.942C1773.4 567.71 1772.71 567.133 1772.29 566.338C1771.87 565.543 1771.75 564.596 1771.96 563.704C1772.17 562.812 1772.69 562.048 1773.4 561.582C1774.12 561.115 1774.97 560.983 1775.77 561.215L1820.36 574.669C1821.13 574.905 1821.78 575.468 1822.18 576.236C1822.57 577.005 1822.68 577.916 1822.48 578.772C1822.34 579.514 1821.98 580.18 1821.45 580.658C1820.92 581.135 1820.26 581.396 1819.58 581.395Z" fill="#231F20"/>
<path d="M1794.62 586.104C1795.82 581.311 1798.36 577.069 1801.87 573.996C1804.55 571.477 1807.69 569.627 1811.07 568.571C1814.44 567.515 1817.98 567.277 1821.45 567.874C1824.91 569.499 1827.77 572.378 1829.57 576.042C1831.36 579.706 1832 583.94 1831.36 588.055C1830.86 593.65 1829.02 598.991 1826.02 603.514C1823.02 608.037 1818.98 611.574 1814.32 613.752C1811.27 614.969 1808.02 615.489 1804.78 615.281C1801.55 615.073 1798.38 614.141 1795.47 612.541" fill="#F3F3F3"/>
<path d="M1806.28 618.662C1802.09 618.655 1797.96 617.573 1794.2 615.501C1793.84 615.308 1793.52 615.037 1793.26 614.704C1793 614.371 1792.8 613.982 1792.68 613.561C1792.55 613.141 1792.5 612.697 1792.54 612.255C1792.57 611.814 1792.68 611.385 1792.87 610.994C1793.04 610.596 1793.29 610.24 1793.59 609.946C1793.88 609.653 1794.23 609.428 1794.61 609.284C1794.98 609.14 1795.38 609.081 1795.78 609.109C1796.17 609.136 1796.56 609.251 1796.92 609.446C1799.46 610.842 1802.23 611.662 1805.06 611.858C1807.9 612.054 1810.73 611.623 1813.41 610.59C1817.53 608.595 1821.1 605.421 1823.75 601.391C1826.4 597.362 1828.05 592.62 1828.52 587.651C1829.05 584.322 1828.57 580.89 1827.16 577.895C1825.75 574.9 1823.49 572.511 1820.73 571.103C1817.71 570.687 1814.65 570.968 1811.74 571.929C1808.83 572.89 1806.13 574.509 1803.81 576.687C1800.86 579.315 1798.75 582.92 1797.76 586.979C1797.66 587.42 1797.47 587.834 1797.22 588.197C1796.97 588.559 1796.66 588.863 1796.3 589.091C1795.95 589.319 1795.55 589.467 1795.15 589.526C1794.74 589.584 1794.32 589.553 1793.93 589.434C1793.53 589.315 1793.16 589.11 1792.83 588.83C1792.51 588.551 1792.24 588.203 1792.03 587.807C1791.83 587.41 1791.69 586.972 1791.64 586.519C1791.59 586.065 1791.62 585.604 1791.72 585.162C1793.13 579.815 1796.03 575.104 1800 571.709C1803.05 568.85 1806.63 566.767 1810.48 565.605C1814.33 564.443 1818.36 564.231 1822.3 564.982C1826.43 566.814 1829.87 570.158 1832.07 574.461C1834.27 578.765 1835.08 583.772 1834.38 588.66C1833.84 594.865 1831.79 600.788 1828.46 605.8C1825.13 610.811 1820.64 614.722 1815.47 617.115C1812.51 618.228 1809.4 618.752 1806.28 618.662Z" fill="#231F20"/>
<path d="M1908.4 1011.38C1880.55 1011.38 1839.76 986.285 1833.9 982.585C1833.55 982.365 1833.25 982.07 1833.01 981.719C1832.77 981.368 1832.59 980.967 1832.48 980.539C1832.38 980.111 1832.35 979.665 1832.4 979.225C1832.45 978.786 1832.58 978.362 1832.78 977.978C1832.98 977.593 1833.24 977.256 1833.56 976.986C1833.87 976.715 1834.23 976.517 1834.62 976.401C1835 976.285 1835.4 976.255 1835.8 976.312C1836.19 976.369 1836.58 976.512 1836.92 976.733C1856.44 989.111 1910.34 1017.09 1924.54 998.461C1938.74 979.827 1896.2 887.602 1878.55 853.699C1878.25 852.94 1878.2 852.081 1878.43 851.288C1878.66 850.495 1879.14 849.824 1879.79 849.406C1880.43 848.987 1881.2 848.851 1881.93 849.022C1882.66 849.194 1883.31 849.662 1883.75 850.335C1890.46 863.251 1948.95 976.868 1929.19 1002.77C1926.5 1005.81 1923.25 1008.16 1919.66 1009.64C1916.06 1011.13 1912.22 1011.72 1908.4 1011.38Z" fill="#231F20"/>
<path d="M1929.67 1125.73H1929.25C1884.6 1118.27 1826.53 1078.65 1823.99 1077.17C1823.65 1076.93 1823.36 1076.63 1823.13 1076.27C1822.9 1075.91 1822.73 1075.5 1822.64 1075.07C1822.55 1074.64 1822.54 1074.19 1822.6 1073.75C1822.67 1073.32 1822.81 1072.9 1823.02 1072.52C1823.23 1072.14 1823.5 1071.81 1823.82 1071.54C1824.14 1071.28 1824.51 1071.09 1824.9 1070.99C1825.29 1070.89 1825.69 1070.88 1826.09 1070.96C1826.48 1071.04 1826.86 1071.2 1827.19 1071.45C1827.74 1071.78 1886.71 1111.81 1929.91 1119.14C1930.31 1119.19 1930.69 1119.33 1931.03 1119.55C1931.38 1119.76 1931.68 1120.06 1931.92 1120.41C1932.15 1120.77 1932.32 1121.17 1932.42 1121.6C1932.51 1122.03 1932.52 1122.47 1932.45 1122.91C1932.34 1123.66 1932.01 1124.35 1931.51 1124.86C1931 1125.37 1930.35 1125.68 1929.67 1125.73Z" fill="#231F20"/>
<path d="M354.083 1214.4L313.465 1406.59L523.39 1461.57L564.008 1269.39L354.083 1214.4Z" fill="#F3F3F3"/>
<path d="M523.462 1464.7H522.797L312.881 1409.67C312.525 1409.59 312.188 1409.42 311.891 1409.19C311.593 1408.95 311.341 1408.65 311.149 1408.31C310.958 1407.96 310.83 1407.58 310.775 1407.18C310.719 1406.78 310.737 1406.37 310.826 1405.97L351.432 1213.79C351.604 1213 352.05 1212.31 352.672 1211.88C353.294 1211.46 354.042 1211.32 354.755 1211.5L564.672 1266.53C565.029 1266.61 565.367 1266.77 565.668 1267C565.969 1267.24 566.226 1267.53 566.424 1267.87C566.796 1268.58 566.905 1269.43 566.726 1270.23L526.121 1462.41C525.946 1463.19 525.514 1463.86 524.912 1464.3C524.473 1464.58 523.97 1464.72 523.462 1464.7ZM316.808 1404.16L521.407 1457.97L560.744 1271.77L356.205 1217.96L316.808 1404.16Z" fill="#231F20"/>
<path d="M481.708 1177.33C481.708 1177.33 478.204 1276.55 468.959 1270.63C456.874 1262.76 461.889 1239.89 461.889 1239.89L420.921 1230.27C420.921 1230.27 438.323 1164.41 439.471 1162.19C440.619 1159.97 481.708 1177.33 481.708 1177.33Z" fill="#F3F3F3"/>
<path d="M469.744 1273.93C468.977 1273.93 468.226 1273.69 467.569 1273.25C456.45 1266.12 457.598 1249.31 458.626 1242.31L420.377 1233.3C420.001 1233.2 419.648 1233.01 419.336 1232.76C419.025 1232.51 418.762 1232.18 418.564 1231.82C418.294 1231.04 418.294 1230.17 418.564 1229.39C425.09 1204.64 436.268 1162.87 437.417 1160.65C438.565 1158.43 439.713 1156.14 482.977 1174.5C483.528 1174.71 484.004 1175.11 484.331 1175.64C484.659 1176.18 484.82 1176.82 484.79 1177.46C483.823 1204.37 480.681 1268.07 472.1 1273.32C471.389 1273.79 470.566 1274 469.744 1273.93ZM424.425 1227.91L462.432 1236.86C463.175 1237.06 463.823 1237.56 464.245 1238.27C464.511 1239.03 464.511 1239.87 464.245 1240.63C464.245 1240.63 459.955 1260.27 469.261 1267.54C473.249 1260.81 477.116 1218.03 478.566 1179.55C463.037 1172.82 446.299 1166.57 441.102 1165.35C439.108 1172.82 430.588 1204.71 424.425 1227.91Z" fill="#231F20"/>
<path d="M544.973 1734.92C544.973 1734.92 541.589 1797.07 541.771 1820.62C541.952 1844.16 541.771 1866.29 566.605 1860.98C580.141 1858.22 654.463 1837.3 647.635 1821.9C640.807 1806.49 592.528 1802.52 592.528 1802.52L596.878 1731.49" fill="#F3F3F3"/>
<path d="M560.019 1865.02C555.506 1865.25 551.068 1863.68 547.511 1860.58C539.293 1853.04 539.172 1837.77 539.051 1821.63V1820.69C539.051 1797.28 542.193 1735.39 542.193 1734.72C542.216 1734.32 542.31 1733.93 542.468 1733.57C542.627 1733.21 542.847 1732.89 543.116 1732.63C543.386 1732.37 543.699 1732.17 544.039 1732.04C544.378 1731.91 544.737 1731.86 545.094 1731.89C545.459 1731.9 545.819 1731.99 546.151 1732.16C546.484 1732.33 546.781 1732.57 547.025 1732.88C547.269 1733.18 547.454 1733.53 547.568 1733.92C547.683 1734.31 547.725 1734.71 547.692 1735.12C547.692 1735.73 544.369 1797.41 544.55 1820.62V1821.56C544.55 1836.22 544.55 1850.15 551.015 1855.87C553.229 1857.46 555.726 1858.49 558.335 1858.9C560.944 1859.31 563.601 1859.07 566.122 1858.22C583.645 1854.59 639.659 1837.23 645.037 1825.33C645.186 1825.05 645.265 1824.74 645.265 1824.42C645.265 1824.1 645.186 1823.78 645.037 1823.51C640.565 1813.49 610.292 1807.37 592.225 1805.89C591.498 1805.82 590.825 1805.43 590.35 1804.82C589.875 1804.2 589.637 1803.4 589.687 1802.59L594.038 1731.55C594.099 1730.75 594.434 1730.01 594.973 1729.47C595.512 1728.93 596.215 1728.64 596.938 1728.66C597.67 1728.73 598.35 1729.11 598.834 1729.73C599.319 1730.34 599.571 1731.14 599.537 1731.96L595.367 1799.97C606.546 1801.11 643.707 1806.02 649.75 1820.82C650.269 1821.94 650.54 1823.19 650.54 1824.45C650.54 1825.72 650.269 1826.96 649.75 1828.08C641.472 1846.38 567.572 1864.07 566.847 1864.21C564.597 1864.71 562.312 1864.98 560.019 1865.02Z" fill="#231F20"/>
<path d="M718.634 1742.32C718.634 1742.32 715.251 1804.47 715.432 1828.02C715.613 1851.56 715.432 1873.69 740.267 1868.38C753.802 1865.62 833.986 1851.36 827.158 1835.96C820.33 1820.55 766.189 1809.92 766.189 1809.92L770.539 1738.89" fill="#F3F3F3"/>
<path d="M733.68 1872.41C729.168 1872.65 724.729 1871.08 721.172 1867.98C712.955 1860.44 712.834 1845.17 712.713 1829.03V1827.95C712.713 1804.54 715.855 1742.65 715.855 1742.05C715.902 1741.24 716.232 1740.48 716.774 1739.94C717.317 1739.4 718.028 1739.12 718.755 1739.16C719.121 1739.16 719.481 1739.25 719.813 1739.42C720.145 1739.59 720.442 1739.84 720.686 1740.14C720.93 1740.44 721.115 1740.8 721.23 1741.18C721.345 1741.57 721.387 1741.98 721.354 1742.38C721.354 1742.99 718.03 1804.74 718.212 1827.88V1828.82C718.212 1843.49 718.212 1857.41 724.677 1863.13C726.89 1864.72 729.388 1865.76 731.997 1866.16C734.606 1866.57 737.263 1866.34 739.783 1865.49L744.013 1864.61C806.432 1852.44 822.566 1843.76 824.62 1838.58C824.62 1838.04 824.62 1837.77 824.62 1837.44C820.088 1827.28 786.069 1817.25 765.645 1813.08C764.972 1812.97 764.364 1812.57 763.948 1811.97C763.532 1811.37 763.339 1810.61 763.409 1809.86L767.76 1738.82C767.821 1738.02 768.156 1737.27 768.695 1736.73C769.234 1736.2 769.937 1735.91 770.66 1735.93C771.392 1736 772.072 1736.38 772.556 1736.99C773.041 1737.61 773.293 1738.41 773.259 1739.22L769.15 1807.77C780.751 1810.19 823.049 1820.01 829.575 1834.68C830.072 1835.71 830.332 1836.87 830.332 1838.04C830.332 1839.21 830.072 1840.37 829.575 1841.4C825.164 1851.16 799.362 1860.17 744.98 1870.73L740.811 1871.61C738.458 1872.1 736.073 1872.37 733.68 1872.41Z" fill="#231F20"/>
<path d="M537.782 1033.31C537.782 1033.31 520.622 1695.5 529.685 1752.14C529.685 1752.14 564.551 1795.93 609.749 1774.07L666.971 1237L697.184 1773.6C697.184 1773.6 726.127 1805.62 786.794 1752.41V1009.9L537.782 1033.31Z" fill="#231F20"/>
<path d="M723.469 1786.65C713.105 1787.24 702.927 1783.42 695.008 1775.95C694.471 1775.39 694.147 1774.62 694.102 1773.8L666.125 1274.33L612.891 1774.47C612.816 1775.05 612.611 1775.61 612.294 1776.08C611.977 1776.55 611.559 1776.92 611.078 1777.16C564.369 1799.7 527.873 1754.83 527.51 1754.36C527.139 1753.88 526.889 1753.3 526.785 1752.68C517.842 1696.37 534.217 1060.21 534.882 1032.9C534.922 1032.08 535.224 1031.31 535.734 1030.71C536.244 1030.12 536.928 1029.75 537.662 1029.67L786.492 1006.26C786.908 1006.23 787.327 1006.29 787.722 1006.44C788.117 1006.59 788.479 1006.83 788.786 1007.15C789.093 1007.47 789.337 1007.85 789.504 1008.28C789.671 1008.7 789.756 1009.16 789.755 1009.63V1752.41C789.757 1752.92 789.655 1753.43 789.457 1753.9C789.258 1754.37 788.967 1754.78 788.607 1755.1C760.388 1779.79 738.756 1786.65 723.469 1786.65ZM700.084 1771.98C704.978 1776.42 731.686 1795.8 783.712 1750.79V1013.53L540.864 1036.4C539.656 1084.7 524.368 1691.06 532.646 1750.59C537.299 1756.11 567.753 1789.47 607.09 1771.71L664.071 1236.59C664.085 1236.17 664.178 1235.75 664.343 1235.37C664.509 1234.98 664.743 1234.64 665.033 1234.36C665.322 1234.09 665.659 1233.88 666.024 1233.75C666.389 1233.63 666.773 1233.59 667.152 1233.63C667.903 1233.65 668.622 1233.97 669.169 1234.54C669.717 1235.12 670.053 1235.89 670.113 1236.73L700.084 1771.98Z" fill="#231F20"/>
<path d="M1044.69 747.549C1044.69 747.549 1077.8 726.696 1080.22 724.409C1082.63 722.121 1094.18 688.016 1096.05 685.796C1097.92 683.577 1102.58 679.54 1104.15 684.249C1105.72 688.958 1102.33 715.125 1102.33 715.125C1102.33 715.125 1143.06 679.675 1145.9 681.491C1148.74 683.307 1150.85 687.411 1144.45 697.367C1138.67 705.07 1131.84 711.72 1124.21 717.076C1124.21 717.076 1138.53 734.97 1136.29 741.091C1134.06 747.213 1079.73 787.776 1079.73 787.776" fill="#F3F3F3"/>
<path d="M1079.98 791.004C1079.52 791.017 1079.07 790.9 1078.67 790.665C1078.27 790.429 1077.93 790.083 1077.68 789.659C1077.47 789.324 1077.33 788.946 1077.25 788.548C1077.18 788.15 1077.17 787.739 1077.24 787.339C1077.31 786.939 1077.45 786.558 1077.65 786.217C1077.84 785.877 1078.1 785.583 1078.4 785.354C1104.15 766.182 1131.94 743.984 1134 740.015C1134.66 737.795 1129.04 727.839 1121.91 719.229C1121.64 718.895 1121.44 718.498 1121.33 718.068C1121.21 717.637 1121.18 717.184 1121.25 716.74C1121.3 716.298 1121.44 715.875 1121.66 715.502C1121.88 715.129 1122.17 714.817 1122.52 714.587C1129.84 709.466 1136.4 703.113 1141.97 695.752C1145.6 690.034 1145.84 687.276 1145.6 686.133C1145.5 685.638 1145.27 685.19 1144.93 684.855C1130.58 694.725 1116.83 705.647 1103.78 717.547C1103.33 717.894 1102.79 718.08 1102.24 718.08C1101.69 718.08 1101.16 717.894 1100.7 717.547C1100.23 717.237 1099.84 716.78 1099.59 716.23C1099.35 715.681 1099.25 715.063 1099.31 714.453C1100.94 704.787 1101.61 694.952 1101.31 685.124C1100.94 685.124 1099.31 685.931 1097.86 687.68C1096.41 689.429 1094.18 696.694 1091.82 703.084C1085.78 719.632 1083.42 725.014 1081.79 726.561C1080.16 728.108 1051.58 746.742 1045.53 750.038C1044.9 750.375 1044.17 750.431 1043.5 750.194C1042.83 749.957 1042.26 749.445 1041.92 748.761C1041.57 748.078 1041.47 747.274 1041.64 746.511C1041.8 745.749 1042.23 745.086 1042.81 744.656C1055.5 736.719 1076.23 723.467 1077.98 721.785C1081.14 714.943 1083.97 707.914 1086.44 700.73C1088.3 694.741 1090.69 688.973 1093.57 683.509C1094.66 682.231 1098.53 678.128 1102.27 678.868C1103.2 679.109 1104.05 679.614 1104.75 680.333C1105.45 681.052 1105.97 681.961 1106.26 682.971C1107.07 691.267 1106.8 699.648 1105.48 707.86C1142.64 675.975 1145.11 677.657 1146.87 678.8C1147.85 679.407 1148.71 680.244 1149.38 681.254C1150.04 682.265 1150.51 683.424 1150.73 684.653C1150.91 687.275 1150.6 689.91 1149.83 692.396C1149.07 694.883 1147.85 697.169 1146.26 699.116C1141.11 706.282 1135 712.522 1128.13 717.614C1133.21 724.341 1140.88 735.911 1138.89 742.033C1136.9 748.154 1097.86 777.887 1081.24 790.264C1080.88 790.623 1080.45 790.877 1079.98 791.004Z" fill="#231F20"/>
<path d="M758.152 710.215C758.152 710.215 699.48 688.824 544.973 721.852C518.144 727.57 505.818 1006.06 526.06 1173.56L796.704 1171.07C796.704 1171.07 841.358 733.423 758.152 710.215Z" fill="#E26831"/>
<path d="M534.761 681.558C534.761 681.558 476.21 890.091 472.463 908.59C468.717 927.089 429.018 1172.62 429.018 1172.62L490.53 1195.63C490.53 1195.63 579.718 966.105 574.038 901.661C568.358 837.218 534.761 681.558 534.761 681.558Z" fill="#E26831"/>
<path d="M753.077 710.349C800.148 715.327 898.097 841.86 906.073 838.16C914.049 834.46 1059.19 723.803 1059.19 723.803L1105.11 779.771C1105.11 779.771 964.504 961.396 935.923 980.635C891.933 1009.9 705.16 876.705 705.16 876.705C705.16 876.705 706.006 705.304 753.077 710.349Z" fill="#E26831"/>
<path d="M462.07 1240.9C462.07 1240.9 443.036 1229.39 451.435 1209.89L462.07 1240.9Z" fill="#F3F3F3"/>
<path d="M462.07 1243.99C461.603 1243.98 461.146 1243.84 460.74 1243.59C453.369 1239.15 441.405 1226.1 448.656 1208.54C448.976 1207.8 449.548 1207.23 450.244 1206.96C450.941 1206.69 451.707 1206.74 452.372 1207.09C453.037 1207.45 453.547 1208.09 453.791 1208.86C454.034 1209.64 453.991 1210.49 453.671 1211.23C446.48 1227.91 462.432 1238.14 463.097 1238.14C463.628 1238.47 464.044 1238.99 464.283 1239.62C464.522 1240.24 464.569 1240.94 464.418 1241.6C464.267 1242.26 463.925 1242.84 463.446 1243.26C462.967 1243.68 462.378 1243.91 461.768 1243.92L462.07 1243.99Z" fill="#231F20"/>
<path d="M895.982 984.604H895.438C865.89 977.877 808.063 939.803 732.291 876.974L728.846 874.081C728.244 873.629 727.824 872.933 727.677 872.141C727.531 871.348 727.668 870.524 728.061 869.843C728.445 869.185 729.045 868.718 729.733 868.542C730.42 868.367 731.143 868.495 731.747 868.901C733.082 869.883 734.373 870.938 735.614 872.063C810.541 934.421 867.582 972.361 896.344 978.684C897.065 978.846 897.698 979.32 898.106 980C898.513 980.681 898.662 981.514 898.52 982.316C898.359 982.942 898.03 983.497 897.576 983.907C897.121 984.316 896.565 984.559 895.982 984.604Z" fill="#231F20"/>
<path d="M738.273 581.53C734.341 581.53 730.497 580.232 727.228 577.8C723.959 575.368 721.411 571.912 719.906 567.868C718.402 563.824 718.008 559.374 718.775 555.081C719.542 550.788 721.436 546.845 724.216 543.749C726.996 540.654 730.538 538.546 734.395 537.692C738.251 536.839 742.248 537.277 745.881 538.952C749.513 540.627 752.618 543.464 754.802 547.103C756.987 550.743 758.153 555.021 758.153 559.399C758.153 565.268 756.058 570.897 752.33 575.048C748.602 579.198 743.545 581.53 738.273 581.53ZM738.273 543.994C735.536 543.994 732.861 544.898 730.585 546.59C728.31 548.283 726.536 550.689 725.489 553.504C724.442 556.318 724.168 559.416 724.701 562.404C725.235 565.392 726.553 568.137 728.488 570.291C730.424 572.446 732.889 573.913 735.573 574.507C738.258 575.102 741.04 574.796 743.568 573.631C746.097 572.465 748.258 570.49 749.778 567.957C751.299 565.424 752.11 562.445 752.11 559.399C752.11 557.376 751.752 555.373 751.057 553.504C750.362 551.635 749.342 549.936 748.057 548.506C746.773 547.076 745.247 545.941 743.568 545.167C741.889 544.393 740.09 543.994 738.273 543.994Z" fill="#231F20"/>
<path d="M730.176 573.996C730.176 573.996 749.814 610.052 745.282 617.115C740.75 624.178 726.55 618.797 726.55 618.797" fill="#F3F3F3"/>
<path d="M736.762 623.842C732.942 623.736 729.155 623.011 725.523 621.689C724.722 621.395 724.058 620.758 723.679 619.919C723.299 619.08 723.234 618.108 723.499 617.216C723.763 616.324 724.335 615.585 725.089 615.163C725.842 614.74 726.716 614.668 727.517 614.962C731.445 616.51 740.327 618.326 742.804 614.559C744.375 611.33 737.306 592.898 727.638 575.14C727.428 574.77 727.287 574.357 727.222 573.925C727.157 573.494 727.17 573.053 727.26 572.627C727.35 572.201 727.516 571.8 727.746 571.446C727.977 571.092 728.269 570.792 728.605 570.565C728.942 570.33 729.317 570.172 729.709 570.099C730.101 570.026 730.503 570.04 730.89 570.14C731.277 570.24 731.643 570.424 731.966 570.682C732.29 570.939 732.564 571.266 732.774 571.642C738.816 583.077 752.895 610.455 747.699 618.73C746.384 620.505 744.702 621.897 742.797 622.788C740.892 623.679 738.821 624.04 736.762 623.842Z" fill="#231F20"/>
<path d="M727.336 527.446C740.206 540.025 735.493 565.385 734.768 581.934C733.801 605.253 732.351 628.551 730.418 651.826C729.209 666.558 694.827 665.279 688.906 660.705L696.157 697.636L621.048 685.393L625.701 637.228C625.701 637.228 620.867 569.96 635.369 540.631C639.58 532.132 645.837 525.11 653.438 520.356C661.039 515.603 669.681 513.305 678.392 513.723C678.392 513.723 714.767 515.069 727.336 527.446Z" fill="#F3F3F3"/>
<path d="M696.156 700.999H695.733L620.625 688.756C619.855 688.623 619.161 688.163 618.688 687.474C618.215 686.785 618 685.918 618.087 685.056L622.68 636.892C622.68 634.739 617.966 569.085 632.71 539.016C637.159 529.91 643.833 522.392 651.96 517.332C660.087 512.273 669.335 509.879 678.633 510.427C680.023 510.427 716.157 511.907 729.33 524.89C741.415 536.527 739.602 556.842 738.393 573.189C738.393 576.35 737.91 579.377 737.789 582.135C736.822 605.41 735.372 629.223 733.439 652.095C733.165 654.661 732.233 657.085 730.754 659.077C729.275 661.07 727.312 662.546 725.1 663.329C714.824 667.471 703.716 668.356 693.014 665.885L699.057 696.963C699.155 697.485 699.141 698.026 699.015 698.54C698.889 699.055 698.655 699.529 698.332 699.923C698.056 700.26 697.72 700.53 697.346 700.715C696.971 700.9 696.566 700.997 696.156 700.999ZM624.372 682.567L692.289 693.6L686.247 661.445C686.111 660.788 686.16 660.1 686.387 659.474C686.614 658.849 687.008 658.316 687.516 657.947C688.021 657.557 688.622 657.347 689.238 657.347C689.853 657.347 690.454 657.557 690.96 657.947C701.39 661.525 712.577 661.266 722.864 657.207C725.886 655.66 727.517 653.709 727.698 651.422C729.632 628.349 731.082 604.939 732.049 581.732C732.049 578.907 732.411 575.812 732.653 572.583C733.801 557.717 735.191 538.949 725.644 529.868C714.042 518.499 678.935 517.087 678.633 517.087C670.475 516.62 662.364 518.728 655.234 523.167C648.104 527.606 642.244 534.196 638.33 542.178C624.432 570.498 628.964 636.354 629.024 636.892L624.372 682.567Z" fill="#231F20"/>
<path d="M606.305 696.761L613.374 671.266L705.583 681.155L710.84 704.564C693.977 711.928 675.86 715.048 657.787 713.698C639.714 712.349 622.133 706.565 606.305 696.761Z" fill="#F3F3F3"/>
<path d="M666.971 717.413C645.292 717.298 623.975 711.221 604.915 699.721C604.296 699.35 603.813 698.751 603.548 698.027C603.284 697.303 603.254 696.498 603.464 695.752L610.292 670.257C610.508 669.52 610.943 668.885 611.524 668.457C612.106 668.03 612.801 667.834 613.495 667.903L705.885 677.657C706.496 677.721 707.075 677.994 707.54 678.44C708.006 678.886 708.335 679.482 708.483 680.146L713.8 703.555C713.965 704.306 713.893 705.097 713.596 705.795C713.299 706.493 712.795 707.056 712.169 707.39C697.891 714.187 682.499 717.601 666.971 717.413ZM610.292 695.079C625.171 703.716 641.49 708.842 658.229 710.139C674.968 711.435 691.767 708.873 707.577 702.614L703.468 684.316L615.851 674.832L610.292 695.079Z" fill="#231F20"/>
<path d="M651.442 643.283C651.442 682.904 687.214 763.021 656.518 794.503C627.695 824.101 577.965 831.837 540.743 827.262C486.361 820.535 457.78 778.627 480.318 719.633C491.255 690.842 510.531 667.096 526.544 641.399C540.636 618.773 552.469 594.502 561.832 569.018C569.808 547.425 575.73 521.93 586.485 501.749C610.293 457.083 652.348 439.593 696.58 453.989C715.553 460.177 752.05 485.605 743.107 513.118C740.932 519.845 733.499 530.002 727.578 527.177C725.886 540.227 718.333 546.483 709.148 554.824C699.505 562.74 689.48 570.061 679.117 576.754C672.063 581.427 665.904 587.598 660.989 594.916C655.613 604.899 652.502 616.189 651.925 627.811C651.495 632.953 651.333 638.119 651.442 643.283Z" fill="#F3F3F3"/>
<path d="M560.744 831.837C553.962 831.828 547.185 831.423 540.441 830.626C511.075 827.128 488.778 813.405 477.478 792.148C466.179 770.891 466.723 746.338 477.478 718.153C486.282 697.334 497.342 677.793 510.41 659.965C515.002 653.238 519.595 646.511 524.006 639.314C537.956 616.861 549.686 592.796 558.992 567.538C561.59 560.408 563.947 553.075 566.424 545.272C570.932 529.649 576.759 514.535 583.827 500.135C594.676 478.533 611.939 461.805 632.655 452.821C653.37 443.837 676.248 443.156 697.365 450.894C711.505 455.469 735.372 470.604 744.074 489.708C745.926 493.447 747.045 497.58 747.358 501.836C747.67 506.091 747.169 510.372 745.886 514.396C743.692 521.092 739.401 526.681 733.801 530.137C732.574 530.718 731.266 531.059 729.934 531.146C727.396 542.716 720.327 549.107 712.23 556.439L710.961 557.582C704.67 563.073 698.026 568.042 691.081 572.449C687.697 574.736 684.313 577.023 680.99 579.176C674.228 583.785 668.337 589.817 663.648 596.934C658.59 606.471 655.668 617.223 655.128 628.282C654.626 633.307 654.404 638.362 654.463 643.417C655.528 659.551 658.121 675.515 662.198 691.043C670.838 730.126 680.325 774.456 658.572 797.059C633.254 822.957 593.615 831.837 560.744 831.837ZM666.73 452.711C650.846 452.725 635.253 457.458 621.561 466.421C607.869 475.385 596.574 488.254 588.842 503.7C581.992 517.751 576.328 532.478 571.923 547.694C569.566 555.228 567.028 563.3 564.37 570.027C554.947 595.757 543.012 620.255 528.779 643.081C524.368 649.808 519.716 657.073 515.002 663.934C502.275 681.351 491.482 700.414 482.856 720.709C473.067 746.674 473.007 770.151 482.856 788.516C493.129 807.956 513.854 820.468 541.227 823.764C575.246 827.868 625.338 821.948 654.645 791.812C674.041 771.631 664.736 729.588 656.518 692.321C652.287 676.275 649.633 659.765 648.602 643.081C648.533 637.799 648.775 632.519 649.327 627.273C649.867 615.184 653.062 603.427 658.633 593.033C663.693 585.355 670.083 578.882 677.425 573.996C680.809 571.507 684.253 569.153 687.697 566.865C694.419 562.579 700.86 557.768 706.973 552.47L708.242 551.394C716.762 543.658 722.864 537.94 724.375 526.908C724.448 526.404 724.624 525.925 724.888 525.507C725.152 525.09 725.498 524.745 725.9 524.499C726.302 524.252 726.749 524.111 727.207 524.085C727.665 524.06 728.123 524.151 728.544 524.352C729.396 524.74 730.351 524.74 731.203 524.352C735.28 521.653 738.396 517.472 740.025 512.512C741.027 509.35 741.411 505.985 741.15 502.644C740.89 499.303 739.991 496.062 738.515 493.139C730.72 475.985 708.302 461.859 695.492 457.756C686.168 454.562 676.484 452.863 666.73 452.711Z" fill="#231F20"/>
<path d="M730.538 634.403C730.538 634.403 713.921 644.83 705.885 625.725L730.538 634.403Z" fill="#F3F3F3"/>
<path d="M720.508 640.592C718.602 640.609 716.705 640.291 714.888 639.65C712.252 638.623 709.842 636.982 707.821 634.836C705.8 632.69 704.213 630.089 703.166 627.205C702.995 626.803 702.898 626.368 702.878 625.924C702.859 625.48 702.918 625.036 703.053 624.618C703.187 624.199 703.395 623.814 703.663 623.485C703.931 623.156 704.255 622.888 704.616 622.698C704.977 622.508 705.368 622.4 705.767 622.378C706.166 622.356 706.565 622.422 706.941 622.572C707.317 622.722 707.662 622.953 707.958 623.252C708.254 623.55 708.494 623.911 708.665 624.313C709.356 626.344 710.423 628.19 711.797 629.731C713.171 631.273 714.822 632.475 716.641 633.26C720.831 634.344 725.233 633.698 729.028 631.443C729.377 631.23 729.76 631.096 730.156 631.048C730.551 631.001 730.952 631.04 731.334 631.165C731.715 631.29 732.071 631.498 732.381 631.777C732.69 632.055 732.947 632.399 733.137 632.789C733.338 633.166 733.467 633.584 733.518 634.019C733.569 634.454 733.54 634.895 733.433 635.317C733.325 635.738 733.142 636.131 732.894 636.472C732.645 636.812 732.337 637.092 731.989 637.296C728.454 639.4 724.517 640.531 720.508 640.592Z" fill="#231F20"/>
<path d="M643.828 587.786C643.57 587.85 643.302 587.85 643.043 587.786C642.276 587.55 641.624 586.986 641.228 586.218C640.832 585.45 640.724 584.539 640.928 583.683C644.191 571.103 646.608 570.902 648.058 570.767C649.508 570.632 718.755 561.148 754.769 556.237C755.562 556.122 756.363 556.363 756.998 556.905C757.632 557.447 758.047 558.247 758.152 559.13C758.238 560.019 758.008 560.911 757.512 561.615C757.015 562.319 756.291 562.779 755.494 562.897C745.342 564.309 660.022 576.35 649.508 577.359C648.348 579.959 647.437 582.687 646.789 585.499C646.574 586.178 646.172 586.764 645.64 587.174C645.109 587.585 644.475 587.799 643.828 587.786Z" fill="#231F20"/>
<path d="M689.51 587.248C689.114 581.381 687.274 575.748 684.192 570.969C682.269 566.96 679.826 563.288 676.941 560.071C675.489 558.484 673.738 557.275 671.816 556.53C669.893 555.786 667.847 555.525 665.823 555.766C664.059 556.162 662.39 556.966 660.923 558.124C659.455 559.283 658.222 560.771 657.303 562.493C655.575 566.022 654.545 569.921 654.282 573.929C653.639 582.697 655.076 591.5 658.448 599.456C661.82 607.413 667.009 614.244 673.497 619.268L672.409 617.788" fill="#F3F3F3"/>
<path d="M673.497 622.766C672.892 622.753 672.303 622.543 671.805 622.16C664.901 616.785 659.378 609.494 655.785 601.01C652.192 592.526 650.653 583.144 651.321 573.794C651.568 569.253 652.747 564.835 654.765 560.879C655.868 558.715 657.379 556.842 659.194 555.391C661.009 553.939 663.085 552.943 665.279 552.47C667.764 552.121 670.287 552.399 672.661 553.284C675.036 554.17 677.201 555.639 678.996 557.582C682.109 561.024 684.737 564.97 686.791 569.287C690.279 574.549 692.372 580.795 692.833 587.315C692.774 588.191 692.427 589.011 691.858 589.619C691.29 590.227 690.539 590.581 689.751 590.611C689.355 590.603 688.963 590.507 688.6 590.33C688.236 590.153 687.908 589.897 687.633 589.579C687.358 589.26 687.142 588.884 686.997 588.473C686.853 588.061 686.783 587.622 686.791 587.181C686.377 581.952 684.684 576.95 681.896 572.718C680.136 568.99 677.897 565.568 675.249 562.56C674.121 561.318 672.765 560.362 671.273 559.758C669.782 559.154 668.19 558.917 666.609 559.062C665.267 559.401 664.004 560.049 662.9 560.964C661.797 561.879 660.879 563.042 660.204 564.377C658.675 567.459 657.787 570.884 657.605 574.4C657.047 582.02 658.163 589.677 660.858 596.709C663.553 603.741 667.746 609.937 673.074 614.761C673.449 614.796 673.814 614.915 674.146 615.112C674.479 615.308 674.772 615.578 675.008 615.904L676.095 617.317C676.58 617.931 676.847 618.72 676.847 619.537C676.847 620.354 676.58 621.143 676.095 621.757C675.759 622.133 675.351 622.42 674.901 622.595C674.45 622.769 673.971 622.828 673.497 622.766Z" fill="#231F20"/>
<path d="M724.8 563.946C726.435 563.917 727.708 560.16 727.643 555.554C727.578 550.947 726.199 547.237 724.564 547.265C722.929 547.294 721.657 551.051 721.722 555.657C721.787 560.263 723.165 563.974 724.8 563.946Z" fill="#231F20"/>
<path d="M521.77 1133.4C521.075 1133.42 520.401 1133.13 519.893 1132.61C519.385 1132.08 519.082 1131.35 519.051 1130.58C513.794 1051.94 524.308 841.321 524.429 839.236C524.444 838.832 524.532 838.436 524.687 838.071C524.842 837.706 525.061 837.379 525.331 837.109C525.602 836.839 525.918 836.633 526.261 836.501C526.604 836.37 526.967 836.316 527.329 836.344C528.061 836.412 528.741 836.794 529.225 837.409C529.71 838.023 529.961 838.823 529.928 839.64C529.928 841.725 519.293 1051.87 524.55 1130.11C524.6 1130.92 524.362 1131.72 523.887 1132.33C523.412 1132.95 522.739 1133.33 522.012 1133.4H521.77Z" fill="#231F20"/>
<path d="M547.209 1140.06C546.55 1139.95 545.948 1139.58 545.512 1139.02C545.077 1138.46 544.838 1137.74 544.838 1137C544.838 1136.26 545.077 1135.54 545.512 1134.98C545.948 1134.42 546.55 1134.05 547.209 1133.94L788.909 1120.49C789.276 1120.46 789.644 1120.51 789.991 1120.65C790.338 1120.79 790.657 1121 790.928 1121.28C791.199 1121.55 791.417 1121.89 791.568 1122.26C791.72 1122.63 791.802 1123.04 791.809 1123.45C791.826 1124.26 791.559 1125.05 791.063 1125.66C790.568 1126.26 789.882 1126.62 789.15 1126.67L547.45 1140.13L547.209 1140.06Z" fill="#231F20"/>
</svg>
